SplineFontDB: 3.2
FontName: NewCMUncial08-Book
FullName: NewCMUncial08-Book
FamilyName: NewCMUncial08
Weight: Book
Copyright: Copyright (c) 2021, Antonis Tsolomitis
Version: 4.1
ItalicAngle: 0
UnderlinePosition: -100
UnderlineWidth: 50
Ascent: 750
Descent: 250
InvalidEm: 0
LayerCount: 2
Layer: 0 0 "Back" 1
Layer: 1 0 "Fore" 0
UniqueID: 4178426
StyleMap: 0x0000
FSType: 0
OS2Version: 0
OS2_WeightWidthSlopeOnly: 0
OS2_UseTypoMetrics: 0
CreationTime: 1637078227
ModificationTime: 1637128216
OS2TypoAscent: 0
OS2TypoAOffset: 1
OS2TypoDescent: 0
OS2TypoDOffset: 1
OS2TypoLinegap: 90
OS2WinAscent: 0
OS2WinAOffset: 1
OS2WinDescent: 0
OS2WinDOffset: 1
HheadAscent: 0
HheadAOffset: 1
HheadDescent: 0
HheadDOffset: 1
Lookup: 1 0 0 "'salt' Stylistic Alternatives lookup 0" { "'salt' Stylistic Alternatives lookup 0-1"  } ['salt' ('DFLT' <'dflt' > 'grek' <'dflt' > 'latn' <'dflt' > ) ]
MarkAttachClasses: 1
DEI: 91125
LangName: 1033
Encoding: UnicodeFull
UnicodeInterp: none
NameList: AGL For New Fonts
DisplaySize: -72
AntiAlias: 1
FitToEm: 0
WinInfo: 0 14 5
BeginPrivate: 8
BlueValues 63 [-74.000 0.000 430.000 448.000 665.000 667.000 677.000 705.000]
BlueScale 12 0.0135135135
StdHW 8 [31.000]
StdVW 8 [89.000]
StemSnapH 15 [22.000 31.000]
StemSnapV 15 [28.000 89.000]
ForceBoldThreshold 2 .5
ForceBold 5 false
EndPrivate
BeginChars: 1114119 167

StartChar: exclam
Encoding: 33 33 0
Width: 295
Flags: W
LayerCount: 2
Fore
SplineSet
169 211 m 2
 167 195 164 183 147 183 c 0
 130 183 128 195 126 212 c 2
 88 658 l 2
 85 696 120 716 147 716 c 0
 175 716 210 696 207 658 c 2
 169 211 l 2
147 0 m 0
 115 0 88 27 88 59 c 0
 88 91 115 118 147 118 c 0
 180 118 207 91 207 59 c 0
 207 27 180 0 147 0 c 0
EndSplineSet
EndChar

StartChar: quotedbl
Encoding: 34 34 1
Width: 396
Flags: W
LayerCount: 2
Fore
SplineSet
267 423 m 1
 227 423 l 1
 205 665 l 2
 202 688 223 705 247 705 c 0
 271 705 292 688 289 665 c 2
 267 423 l 1
169 423 m 1
 130 423 l 1
 107 665 l 1
 107 668 l 2
 107 690 127 705 149 705 c 0
 173 705 194 688 192 665 c 2
 169 423 l 1
EndSplineSet
EndChar

StartChar: numbersign
Encoding: 35 35 2
Width: 883
Flags: W
LayerCount: 2
Fore
SplineSet
783 128 m 2
 555 128 l 1
 472 -165 l 2
 468 -179 463 -194 441 -194 c 0
 425 -194 412 -182 412 -167 c 0
 412 -163 416 -151 417 -148 c 2
 496 128 l 1
 314 128 l 1
 231 -165 l 2
 227 -179 222 -194 201 -194 c 0
 185 -194 173 -182 173 -167 c 0
 173 -163 176 -151 177 -148 c 2
 257 128 l 1
 99 128 l 2
 80 128 56 130 56 155 c 0
 56 180 82 181 100 181 c 2
 273 181 l 1
 311 319 l 1
 100 319 l 2
 82 319 56 320 56 345 c 0
 56 370 80 372 99 372 c 2
 327 372 l 1
 410 665 l 2
 414 679 419 694 441 694 c 0
 456 694 470 682 470 667 c 0
 470 663 466 651 465 648 c 2
 386 372 l 1
 568 372 l 1
 651 665 l 2
 655 679 660 694 681 694 c 0
 697 694 709 682 709 667 c 0
 709 663 706 651 705 648 c 2
 625 372 l 1
 783 372 l 2
 802 372 826 370 826 345 c 0
 826 320 799 319 782 319 c 2
 609 319 l 1
 571 181 l 1
 782 181 l 2
 799 181 826 180 826 155 c 0
 826 130 802 128 783 128 c 2
369 319 m 1
 331 181 l 1
 513 181 l 1
 551 319 l 1
 369 319 l 1
EndSplineSet
EndChar

StartChar: dollar
Encoding: 36 36 3
Width: 530
Flags: W
LayerCount: 2
Fore
SplineSet
288 -10 m 1
 288 -56 l 1
 241 -56 l 1
 241 -11 l 1
 111 -1 56 92 56 181 c 0
 56 236 105 238 111 238 c 0
 140 238 166 218 166 186 c 0
 166 156 144 134 111 134 c 0
 109 134 107 134 104 134 c 1
 119 82 162 40 241 34 c 1
 241 314 l 1
 191 327 156 336 115 374 c 0
 96 392 56 440 56 510 c 0
 56 601 126 691 241 704 c 1
 241 750 l 1
 288 750 l 1
 288 705 l 1
 404 697 473 623 473 526 c 0
 473 471 421 470 418 470 c 0
 393 470 363 487 363 522 c 0
 363 553 386 574 418 574 c 0
 420 574 422 574 423 574 c 1
 406 620 363 655 288 660 c 1
 288 408 l 1
 335 396 373 386 415 343 c 0
 424 333 473 282 473 197 c 0
 473 95 398 2 288 -10 c 1
241 659 m 1
 167 649 124 593 124 540 c 0
 124 521 127 445 241 418 c 1
 241 659 l 1
288 303 m 1
 288 35 l 1
 361 47 405 107 405 168 c 0
 405 191 399 277 288 303 c 1
EndSplineSet
EndChar

StartChar: percent
Encoding: 37 37 4
Width: 883
Flags: W
LayerCount: 2
Fore
SplineSet
682 -56 m 0
 597 -56 520 28 520 149 c 0
 520 266 596 354 682 354 c 0
 763 354 826 262 826 148 c 0
 826 38 765 -56 682 -56 c 0
729 702 m 2
 199 -38 l 2
 192 -48 187 -56 172 -56 c 0
 157 -56 143 -44 143 -29 c 0
 143 -27 144 -20 154 -6 c 2
 610 631 l 1
 585 620 543 607 490 607 c 0
 455 607 407 612 346 641 c 1
 361 596 361 557 361 545 c 0
 361 434 301 340 217 340 c 0
 133 340 56 425 56 546 c 0
 56 662 132 750 217 750 c 0
 253 750 277 734 298 716 c 0
 354 667 417 643 489 643 c 0
 564 643 630 670 682 734 c 0
 688 741 696 750 710 750 c 0
 726 750 739 738 739 723 c 0
 739 716 736 712 729 702 c 2
683 318 m 0
 667 318 600 310 600 148 c 0
 600 -12 668 -20 683 -20 c 0
 731 -20 784 43 784 149 c 0
 784 253 732 318 683 318 c 0
218 714 m 0
 203 714 136 706 136 545 c 0
 136 384 204 376 218 376 c 0
 266 376 320 440 320 546 c 0
 320 649 267 714 218 714 c 0
EndSplineSet
EndChar

StartChar: ampersand
Encoding: 38 38 5
Width: 967
Flags: W
LayerCount: 2
Fore
SplineSet
904 342 m 1
 877 355 871 359 841 363 c 0
 713 380 610 293 594 185 c 0
 579 86 639 36 690 30 c 0
 729 25 765 40 819 109 c 1
 845 87 860 64 861 34 c 1
 776 -18 694 -9 660 -4 c 0
 636 -1 613 5 592 13 c 1
 549 -9 497 -22 429 -22 c 0
 229 -22 56 135 56 342 c 0
 56 546 228 705 429 705 c 0
 528 705 713 681 713 535 c 0
 713 499 698 469 670 449 c 1
 670 445 l 1
 844 421 l 2
 854 420 889 418 906 451 c 1
 946 442 l 1
 904 342 l 1
680 385 m 1
 606 395 l 2
 585 397 568 400 555 401 c 0
 543 401 535 400 529 396 c 0
 516 389 509 370 494 313 c 1
 453 318 l 1
 492 469 l 1
 523 466 555 461 587 465 c 0
 617 468 638 479 638 510 c 0
 638 573 582 660 441 660 c 0
 380 660 179 629 179 341 c 0
 179 54 379 23 442 23 c 0
 483 23 517 28 545 40 c 1
 503 74 481 124 490 182 c 0
 510 311 591 348 680 385 c 1
EndSplineSet
Substitution2: "'salt' Stylistic Alternatives lookup 0-1" ampersand.alt
EndChar

StartChar: quotesingle
Encoding: 39 39 6
Width: 295
Flags: W
LayerCount: 2
Fore
SplineSet
166 423 m 1
 129 423 l 1
 107 665 l 2
 105 688 124 705 147 705 c 0
 170 705 190 688 188 665 c 2
 166 423 l 1
EndSplineSet
EndChar

StartChar: parenleft
Encoding: 40 40 7
Width: 412
Flags: W
LayerCount: 2
Fore
SplineSet
336 -250 m 0
 321 -250 231 -182 170 -60 c 0
 113 52 102 172 102 250 c 0
 102 334 114 444 167 553 c 0
 227 679 321 750 336 750 c 0
 346 750 354 745 354 733 c 0
 354 727 350 723 338 711 c 0
 214 591 176 421 176 250 c 0
 176 100 209 -85 334 -206 c 0
 351 -223 354 -227 354 -233 c 0
 354 -245 346 -250 336 -250 c 0
EndSplineSet
EndChar

StartChar: parenright
Encoding: 41 41 8
Width: 412
Flags: W
LayerCount: 2
Fore
SplineSet
245 -53 m 0
 185 -179 90 -250 75 -250 c 0
 65 -250 57 -243 57 -233 c 0
 57 -227 61 -223 73 -211 c 0
 198 -90 235 82 235 250 c 0
 235 455 178 610 78 705 c 0
 60 722 57 727 57 733 c 0
 57 743 65 750 75 750 c 0
 90 750 180 682 241 560 c 0
 298 448 310 328 310 250 c 0
 310 166 297 56 245 -53 c 0
EndSplineSet
EndChar

StartChar: asterisk
Encoding: 42 42 9
Width: 530
Flags: W
LayerCount: 2
Fore
SplineSet
428 410 m 0
 419 410 414 413 407 417 c 2
 285 500 l 1
 299 351 l 2
 299 334 285 319 264 319 c 0
 248 319 230 331 230 351 c 2
 244 500 l 1
 109 410 l 1
 66 410 66 444 66 444 c 1
 66 460 72 468 94 478 c 2
 224 535 l 1
 92 592 l 2
 72 601 66 612 66 625 c 0
 66 641 79 659 101 659 c 0
 109 659 113 657 119 653 c 2
 128 647 l 1
 244 569 l 1
 230 718 l 2
 230 735 244 750 265 750 c 0
 281 750 299 738 299 718 c 2
 285 569 l 1
 387 639 l 2
 396 645 410 657 421 658 c 0
 423 659 426 659 428 659 c 0
 450 659 463 641 463 625 c 0
 463 609 457 601 435 591 c 2
 305 534 l 1
 437 477 l 2
 457 468 463 457 463 444 c 0
 463 428 450 410 428 410 c 0
EndSplineSet
EndChar

StartChar: plus
Encoding: 43 43 10
Width: 825
Flags: W
LayerCount: 2
Fore
SplineSet
725 223 m 2
 441 223 l 1
 441 -43 l 2
 441 -61 439 -83 412 -83 c 0
 386 -83 384 -61 384 -43 c 2
 384 223 l 1
 99 223 l 2
 80 223 56 225 56 250 c 0
 56 275 80 277 99 277 c 2
 384 277 l 1
 384 543 l 2
 384 561 386 583 412 583 c 0
 439 583 441 561 441 543 c 2
 441 277 l 1
 725 277 l 2
 744 277 767 275 767 250 c 0
 767 225 744 223 725 223 c 2
EndSplineSet
EndChar

StartChar: comma
Encoding: 44 44 11
Width: 295
Flags: W
LayerCount: 2
Fore
SplineSet
121 -193 m 0
 111 -193 104 -186 104 -175 c 0
 104 -170 106 -168 109 -165 c 0
 156 -117 179 -65 180 0 c 1
 170 -6 160 -9 147 -9 c 0
 107 -9 88 22 88 48 c 0
 88 77 108 106 147 106 c 0
 194 106 218 60 218 -1 c 0
 218 -111 140 -193 121 -193 c 0
EndSplineSet
EndChar

StartChar: hyphen
Encoding: 45 45 12
Width: 353
Flags: W
LayerCount: 2
Fore
SplineSet
8 187 m 1
 8 245 l 1
 296 245 l 1
 296 187 l 1
 8 187 l 1
EndSplineSet
EndChar

StartChar: period
Encoding: 46 46 13
Width: 295
Flags: W
LayerCount: 2
Fore
SplineSet
147 0 m 0
 115 0 88 24 88 53 c 0
 88 82 115 106 147 106 c 0
 180 106 207 82 207 53 c 0
 207 24 180 0 147 0 c 0
EndSplineSet
EndChar

StartChar: zero
Encoding: 48 48 14
Width: 604
Flags: W
LayerCount: 2
Fore
SplineSet
472 40 m 0
 430 -5 365 -22 302 -22 c 0
 239 -22 174 -5 132 40 c 0
 85 91 75 161 75 225 c 0
 75 289 85 359 132 410 c 0
 174 455 239 472 302 472 c 0
 365 472 430 455 472 410 c 0
 519 359 529 289 529 225 c 0
 529 161 519 91 472 40 c 0
395 385 m 0
 375 417 341 436 302 436 c 0
 263 436 229 417 209 385 c 0
 181 338 177 281 177 225 c 0
 177 169 181 112 209 65 c 0
 229 33 263 14 302 14 c 0
 341 14 375 33 395 65 c 0
 424 112 427 169 427 225 c 0
 427 281 424 338 395 385 c 0
EndSplineSet
EndChar

StartChar: one
Encoding: 49 49 15
Width: 428
Flags: W
LayerCount: 2
Fore
SplineSet
220 4 m 1
 41 0 l 1
 41 43 l 1
 99 43 l 2
 136 43 171 51 171 85 c 2
 171 399 l 1
 131 385 84 385 36 385 c 1
 36 430 l 1
 95 430 148 433 195 452 c 0
 208 459 225 472 240 472 c 0
 259 472 263 448 263 432 c 2
 263 84 l 2
 263 48 299 43 338 43 c 2
 392 43 l 1
 392 0 l 1
 220 4 l 1
EndSplineSet
EndChar

StartChar: two
Encoding: 50 50 16
Width: 587
Flags: W
LayerCount: 2
Fore
SplineSet
485 18 m 2
 484 11 480 0 466 0 c 2
 76 0 l 1
 76 11 75 16 75 21 c 0
 75 42 92 48 107 58 c 2
 272 165 l 2
 327 201 402 261 402 330 c 0
 402 395 331 429 265 429 c 0
 221 429 178 416 152 386 c 1
 170 379 184 365 184 343 c 0
 184 321 166 298 137 298 c 0
 110 298 88 315 88 346 c 0
 88 441 208 472 277 472 c 0
 370 472 512 445 512 329 c 0
 512 250 445 205 380 170 c 2
 221 85 l 1
 407 85 l 2
 424 85 436 85 448 88 c 0
 457 90 460 107 462 114 c 0
 466 126 471 148 488 148 c 2
 514 148 l 1
 485 18 l 2
EndSplineSet
EndChar

StartChar: three
Encoding: 51 51 17
Width: 597
Flags: W
LayerCount: 2
Fore
SplineSet
293 -216 m 0
 177 -216 75 -150 75 -55 c 0
 75 -7 113 8 141 8 c 0
 174 8 207 -14 207 -53 c 0
 207 -90 179 -113 145 -115 c 1
 181 -161 249 -174 289 -174 c 0
 331 -174 400 -150 400 -20 c 0
 400 75 362 136 283 136 c 2
 237 136 l 2
 217 136 206 138 206 154 c 0
 206 168 217 171 228 173 c 0
 235 173 260 174 268 175 c 0
 293 176 327 178 356 223 c 0
 382 263 383 319 383 331 c 0
 383 415 330 433 290 433 c 0
 257 433 199 423 166 386 c 1
 189 384 224 375 224 331 c 0
 224 299 200 274 163 274 c 0
 130 274 103 296 103 332 c 0
 103 412 188 472 295 472 c 0
 396 472 494 416 494 330 c 0
 494 256 441 190 365 159 c 1
 463 132 522 58 522 -20 c 0
 522 -125 423 -216 293 -216 c 0
EndSplineSet
EndChar

StartChar: four
Encoding: 52 52 18
Width: 548
Flags: W
LayerCount: 2
Fore
SplineSet
408 -4 m 1
 408 -111 l 2
 408 -142 411 -149 479 -149 c 2
 509 -149 l 1
 509 -194 l 1
 459 -191 404 -191 360 -191 c 0
 316 -191 262 -191 212 -194 c 1
 212 -149 l 1
 242 -149 l 2
 310 -149 313 -142 313 -111 c 2
 313 -4 l 1
 36 -4 l 1
 36 36 l 1
 357 470 l 2
 367 483 372 485 384 485 c 0
 407 485 408 476 408 452 c 2
 408 40 l 1
 512 40 l 1
 512 -4 l 1
 408 -4 l 1
319 351 m 1
 87 40 l 1
 319 40 l 1
 319 351 l 1
EndSplineSet
EndChar

StartChar: five
Encoding: 53 53 19
Width: 580
Flags: W
LayerCount: 2
Fore
SplineSet
270 -216 m 0
 149 -216 75 -117 75 -30 c 0
 75 21 117 29 134 29 c 0
 173 29 193 0 193 -26 c 0
 193 -53 173 -81 134 -81 c 0
 131 -81 129 -81 127 -81 c 1
 148 -131 201 -174 268 -174 c 0
 314 -174 351 -151 374 -114 c 0
 396 -78 397 -27 397 16 c 0
 397 66 396 103 380 137 c 0
 371 155 347 195 298 195 c 0
 218 195 181 145 170 130 c 0
 165 123 161 118 151 118 c 0
 129 118 128 130 128 151 c 2
 128 440 l 2
 128 458 130 471 146 471 c 0
 151 471 157 470 161 468 c 0
 210 448 256 440 297 440 c 0
 365 440 414 460 434 469 c 0
 441 472 446 472 446 472 c 2
 459 472 464 462 464 454 c 0
 464 436 386 345 257 345 c 0
 226 345 196 350 175 356 c 1
 175 190 l 1
 211 218 254 231 300 231 c 0
 417 231 505 129 505 9 c 0
 505 -118 395 -216 270 -216 c 0
EndSplineSet
EndChar

StartChar: six
Encoding: 54 54 20
Width: 597
Flags: W
LayerCount: 2
Fore
SplineSet
183 358 m 1
 207 397 246 432 306 432 c 0
 426 432 522 334 522 206 c 0
 522 74 420 -22 300 -22 c 0
 198 -22 75 52 75 316 c 0
 75 535 218 666 356 666 c 0
 446 666 495 616 495 553 c 0
 495 510 459 499 440 499 c 0
 414 499 385 516 385 551 c 0
 385 591 414 600 435 602 c 1
 413 623 380 627 358 627 c 0
 310 627 186 597 183 358 c 1
411 278 m 0
 409 301 405 321 396 339 c 0
 376 377 347 395 305 395 c 0
 219 395 185 304 185 228 c 0
 185 186 189 126 204 88 c 0
 210 74 240 20 300 20 c 0
 323 20 368 23 397 79 c 0
 415 114 413 169 413 207 c 0
 413 231 413 255 411 278 c 0
EndSplineSet
EndChar

StartChar: seven
Encoding: 55 55 21
Width: 533
Flags: W
LayerCount: 2
Fore
SplineSet
486 409 m 2
 346 223 l 2
 281 136 271 1 271 -102 c 2
 271 -153 l 2
 271 -163 271 -213 216 -213 c 0
 161 -213 161 -163 161 -153 c 0
 161 -51 192 90 290 220 c 2
 399 364 l 1
 197 364 l 2
 185 364 106 365 101 360 c 0
 89 351 79 285 76 269 c 1
 34 269 l 1
 71 485 l 1
 110 485 l 1
 113 472 112 467 127 462 c 0
 143 457 174 453 237 453 c 2
 497 453 l 1
 497 425 496 423 486 409 c 2
EndSplineSet
EndChar

StartChar: eight
Encoding: 56 56 22
Width: 597
Flags: W
LayerCount: 2
Fore
SplineSet
298 -22 m 0
 187 -22 75 45 75 154 c 0
 75 250 158 306 218 335 c 1
 207 342 195 350 185 357 c 0
 170 367 157 376 151 384 c 0
 105 431 103 477 103 495 c 0
 103 591 191 666 299 666 c 0
 395 666 494 609 494 513 c 0
 494 448 445 397 375 360 c 1
 403 344 422 333 435 324 c 0
 450 314 459 306 469 296 c 0
 510 254 522 208 522 171 c 0
 522 61 419 -22 298 -22 c 0
298 627 m 0
 225 627 164 588 164 534 c 0
 164 519 168 488 213 460 c 2
 337 384 l 1
 396 417 432 462 432 513 c 0
 432 579 371 627 298 627 c 0
380 238 m 2
 256 312 l 1
 173 268 142 207 142 154 c 0
 142 77 212 20 299 20 c 0
 382 20 455 69 455 136 c 0
 455 191 410 220 380 238 c 2
EndSplineSet
EndChar

StartChar: nine
Encoding: 57 57 23
Width: 597
Flags: W
LayerCount: 2
Fore
SplineSet
253 -216 m 0
 162 -216 102 -175 102 -103 c 0
 102 -60 138 -49 157 -49 c 0
 183 -49 212 -66 212 -101 c 0
 212 -118 204 -146 166 -152 c 1
 194 -173 236 -174 252 -174 c 0
 307 -174 413 -135 413 92 c 2
 413 93 l 1
 387 50 347 19 290 19 c 0
 170 19 75 119 75 245 c 0
 75 320 100 363 144 408 c 0
 189 454 243 472 302 472 c 0
 400 472 522 401 522 135 c 0
 522 -78 393 -216 253 -216 c 0
395 361 m 0
 377 404 346 433 302 433 c 0
 268 433 231 422 204 375 c 0
 184 341 183 297 183 244 c 0
 183 204 182 150 201 113 c 0
 221 75 248 56 291 56 c 0
 376 56 411 144 411 225 c 0
 411 270 407 331 395 361 c 0
EndSplineSet
EndChar

StartChar: colon
Encoding: 58 58 24
Width: 295
Flags: W
LayerCount: 2
Fore
SplineSet
147 315 m 0
 115 315 88 341 88 373 c 0
 88 405 115 431 147 431 c 0
 180 431 207 405 207 373 c 0
 207 341 180 315 147 315 c 0
147 0 m 0
 115 0 88 26 88 58 c 0
 88 90 115 116 147 116 c 0
 180 116 207 90 207 58 c 0
 207 26 180 0 147 0 c 0
EndSplineSet
EndChar

StartChar: semicolon
Encoding: 59 59 25
Width: 295
Flags: W
LayerCount: 2
Fore
SplineSet
147 313 m 0
 115 313 88 340 88 373 c 0
 88 405 115 431 147 431 c 0
 180 431 207 405 207 373 c 0
 207 340 180 313 147 313 c 0
121 -193 m 0
 111 -193 104 -185 104 -175 c 0
 104 -170 105 -166 112 -158 c 0
 153 -112 172 -59 174 1 c 1
 168 -1 161 -3 156 -3 c 0
 155 -3 151 -4 147 -4 c 0
 107 -4 88 26 88 55 c 0
 88 82 108 113 147 113 c 0
 205 113 210 36 210 5 c 0
 210 -108 139 -193 121 -193 c 0
EndSplineSet
EndChar

StartChar: less
Encoding: 60 60 26
Width: 825
Flags: W
LayerCount: 2
Fore
SplineSet
710 -40 m 0
 706 -40 703 -39 689 -33 c 2
 109 223 l 2
 96 228 85 234 85 250 c 0
 85 266 96 272 109 277 c 2
 689 533 l 2
 703 539 706 540 710 540 c 0
 726 540 739 528 739 513 c 0
 739 498 728 492 715 486 c 2
 179 250 l 1
 715 14 l 2
 728 8 739 2 739 -13 c 0
 739 -28 726 -40 710 -40 c 0
EndSplineSet
EndChar

StartChar: equal
Encoding: 61 61 27
Width: 825
Flags: W
LayerCount: 2
Fore
SplineSet
724 316 m 2
 100 316 l 2
 80 316 56 318 56 342 c 0
 56 365 80 367 99 367 c 2
 725 367 l 2
 744 367 767 365 767 342 c 0
 767 318 744 316 724 316 c 2
725 133 m 2
 99 133 l 2
 80 133 56 135 56 158 c 0
 56 182 80 184 100 184 c 2
 724 184 l 2
 744 184 767 182 767 158 c 0
 767 135 744 133 725 133 c 2
EndSplineSet
EndChar

StartChar: greater
Encoding: 62 62 28
Width: 825
Flags: W
LayerCount: 2
Fore
SplineSet
715 223 m 2
 135 -33 l 2
 120 -39 117 -40 113 -40 c 0
 98 -40 85 -28 85 -13 c 0
 85 -1 93 7 109 14 c 2
 644 250 l 1
 109 486 l 2
 93 493 85 501 85 513 c 0
 85 528 98 540 113 540 c 0
 117 540 120 539 135 533 c 2
 715 277 l 2
 727 272 739 266 739 250 c 0
 739 234 727 228 715 223 c 2
EndSplineSet
EndChar

StartChar: at
Encoding: 64 64 29
Width: 846
Flags: W
LayerCount: 2
Fore
SplineSet
731 -3 m 1
 566 -3 l 1
 521 87 l 2
 504 120 446 224 429 259 c 1
 428 259 l 1
 384 191 189 -115 189 -115 c 2
 168 -149 227 -156 265 -156 c 1
 265 -201 l 1
 118 -201 l 2
 88 -201 74 -167 89 -141 c 0
 92 -141 361 185 381 318 c 0
 388 367 336 391 258 391 c 1
 258 435 l 1
 382 433 l 2
 410 433 419 424 434 398 c 2
 621 78 l 2
 644 39 659 37 668 37 c 0
 696 37 743 149 743 219 c 0
 743 399 589 535 424 535 c 0
 257 535 103 399 103 219 c 0
 103 39 257 -98 424 -98 c 0
 483 -98 532 -84 588 -51 c 0
 599 -44 622 -43 631 -58 c 0
 642 -75 630 -93 616 -100 c 0
 550 -138 492 -153 423 -153 c 0
 220 -153 42 12 42 219 c 0
 42 426 220 591 423 591 c 0
 626 591 803 426 803 219 c 0
 803 139 778 63 731 -3 c 1
EndSplineSet
EndChar

StartChar: A
Encoding: 65 65 30
Width: 753
Flags: W
LayerCount: 2
Fore
SplineSet
722 0 m 1
 701 4 557 3 544 0 c 0
 535 0 520 48 516 56 c 0
 505 82 496 113 487 135 c 1
 340 105 222 80 76 -20 c 1
 55 -20 31 -13 24 16 c 1
 79 101 151 202 210 292 c 0
 270 382 314 461 314 499 c 0
 314 521 307 539 292 559 c 0
 255 610 189 635 123 635 c 1
 123 683 l 1
 191 680 261 680 343 684 c 1
 638 66 l 2
 646 49 656 44 711 44 c 2
 736 44 l 1
 736 0 l 1
 722 0 l 1
166 134 m 1
 263 164 416 188 467 189 c 1
 439 247 383 361 359 407 c 1
 347 407 l 1
 338 393 293 327 250 263 c 0
 212 205 176 150 166 134 c 1
EndSplineSet
EndChar

StartChar: B
Encoding: 66 66 31
Width: 750
Flags: W
LayerCount: 2
Fore
SplineSet
346 -22 m 0
 182 -22 143 33 143 83 c 2
 143 600 l 2
 143 632 142 654 67 654 c 2
 22 654 l 1
 22 702 l 1
 101 699 170 699 244 703 c 1
 244 598 l 1
 305 662 369 693 467 693 c 0
 530 693 634 651 634 560 c 0
 634 490 537 399 457 360 c 1
 567 341 683 271 683 186 c 0
 683 83 586 -22 346 -22 c 0
327 337 m 1
 265 369 l 1
 460 399 517 501 517 560 c 0
 517 607 473 640 418 640 c 0
 374 640 304 594 244 514 c 1
 244 76 l 2
 244 57 262 40 352 40 c 0
 419 40 563 45 563 187 c 0
 563 285 425 337 327 337 c 1
EndSplineSet
EndChar

StartChar: C
Encoding: 67 67 32
Width: 765
Flags: W
LayerCount: 2
Fore
SplineSet
673 490 m 0
 653 490 654 498 650 512 c 0
 619 610 550 660 439 660 c 0
 377 660 179 629 179 341 c 0
 179 54 378 23 440 23 c 0
 551 23 609 69 661 139 c 0
 668 149 674 157 689 149 c 0
 707 140 700 127 696 119 c 0
 646 33 569 -22 427 -22 c 0
 229 -22 56 135 56 342 c 0
 56 546 228 705 427 705 c 0
 528 705 623 700 697 588 c 1
 697 521 l 2
 697 500 697 490 673 490 c 0
EndSplineSet
EndChar

StartChar: D
Encoding: 68 68 33
Width: 706
Flags: W
LayerCount: 2
Fore
SplineSet
352 -15 m 0
 179 -15 45 116 45 276 c 0
 45 346 69 408 111 459 c 1
 202 494 l 1
 202 454 l 1
 175 416 157 362 157 289 c 0
 157 84 275 28 352 28 c 0
 429 28 548 84 548 289 c 0
 548 414 476 489 369 548 c 0
 340 564 312 578 288 590 c 0
 272 598 183 635 65 635 c 1
 65 683 l 1
 132 680 292 684 292 684 c 1
 377 646 462 607 532 547 c 0
 606 485 661 398 661 276 c 0
 661 109 517 -15 352 -15 c 0
EndSplineSet
EndChar

StartChar: E
Encoding: 69 69 34
Width: 765
Flags: W
LayerCount: 2
Fore
SplineSet
673 490 m 0
 653 490 654 498 650 512 c 0
 619 610 550 660 439 660 c 0
 381 660 194 632 180 376 c 1
 407 386 l 2
 504 390 513 403 513 490 c 1
 554 490 l 1
 554 216 l 1
 513 216 l 1
 513 303 504 317 407 321 c 2
 179 331 l 1
 183 53 380 23 440 23 c 0
 551 23 609 69 661 139 c 0
 668 149 674 157 689 149 c 0
 707 140 700 127 696 119 c 0
 646 33 569 -22 427 -22 c 0
 229 -22 56 135 56 342 c 0
 56 546 228 705 427 705 c 0
 528 705 623 700 697 588 c 1
 697 521 l 2
 697 500 697 490 673 490 c 0
EndSplineSet
EndChar

StartChar: F
Encoding: 70 70 35
Width: 692
Flags: W
LayerCount: 2
Fore
SplineSet
610 445 m 1
 593 585 568 635 417 635 c 2
 291 635 l 2
 247 635 247 631 247 604 c 2
 247 260 l 1
 377 270 l 2
 430 274 432 316 432 378 c 1
 474 378 l 1
 474 104 l 1
 432 104 l 1
 432 168 430 211 377 216 c 2
 247 227 l 1
 247 -16 l 2
 247 -47 249 -55 339 -55 c 2
 382 -55 l 1
 382 -100 l 1
 336 -97 241 -97 198 -97 c 0
 157 -97 77 -97 32 -100 c 1
 32 -55 l 1
 65 -55 l 2
 139 -55 140 -47 140 -17 c 2
 140 597 l 2
 140 627 139 635 65 635 c 2
 32 635 l 1
 32 680 l 1
 620 680 l 1
 651 445 l 1
 610 445 l 1
EndSplineSet
EndChar

StartChar: G
Encoding: 71 71 36
Width: 832
Flags: W
LayerCount: 2
Fore
SplineSet
427 -22 m 0
 229 -22 56 135 56 342 c 0
 56 546 228 705 427 705 c 0
 528 705 623 700 697 588 c 1
 697 521 l 2
 697 500 697 490 673 490 c 0
 653 490 654 498 650 512 c 0
 618 610 550 660 439 660 c 0
 378 660 179 629 179 341 c 0
 179 54 378 23 440 23 c 0
 551 23 664 113 664 193 c 0
 664 242 627 322 526 322 c 0
 468 322 431 277 403 223 c 1
 359 257 348 294 343 334 c 1
 383 370 428 388 480 388 c 0
 680 388 718 238 718 193 c 0
 718 72 590 -22 427 -22 c 0
EndSplineSet
EndChar

StartChar: H
Encoding: 72 72 37
Width: 740
Flags: W
LayerCount: 2
Fore
SplineSet
374 -85 m 0
 347 -85 329 -77 329 -66 c 0
 329 -56 345 -49 373 -49 c 0
 475 -49 594 107 594 286 c 0
 594 499 485 527 426 527 c 0
 384 527 251 496 251 371 c 2
 251 63 l 1
 256 49 262 44 336 44 c 2
 363 44 l 1
 363 -2 l 1
 344 -2 l 2
 325 1 69 1 48 -2 c 2
 30 -2 l 1
 30 44 l 1
 56 44 l 2
 124 44 134 47 142 64 c 1
 142 618 l 1
 137 625 133 630 125 633 c 0
 114 636 96 637 56 637 c 2
 30 637 l 1
 30 683 l 1
 48 683 l 2
 67 680 323 680 344 683 c 2
 363 683 l 1
 363 637 l 1
 336 637 l 2
 265 637 259 632 251 619 c 1
 251 491 l 1
 288 531 367 563 435 563 c 0
 580 563 693 444 693 274 c 0
 693 98 587 -85 374 -85 c 0
EndSplineSet
EndChar

StartChar: I
Encoding: 73 73 38
Width: 383
Flags: W
LayerCount: 2
Fore
SplineSet
191 3 m 0
 152 3 70 3 26 0 c 1
 26 45 l 1
 60 45 l 2
 137 45 138 53 138 83 c 2
 138 600 l 2
 138 630 137 638 60 638 c 2
 26 638 l 1
 26 683 l 1
 70 680 152 680 192 680 c 0
 231 680 313 680 356 683 c 1
 356 638 l 1
 322 638 l 2
 245 638 245 630 245 600 c 2
 245 83 l 2
 245 53 245 45 322 45 c 2
 356 45 l 1
 356 0 l 1
 313 3 231 3 191 3 c 0
EndSplineSet
EndChar

StartChar: J
Encoding: 74 74 39
Width: 545
Flags: W
LayerCount: 2
Fore
SplineSet
417 606 m 2
 417 170 l 2
 417 136 417 134 415 126 c 0
 404 48 325 -22 216 -22 c 0
 193 -22 154 -12 154 7 c 0
 154 27 174 23 186 19 c 0
 191 18 195 17 198 16 c 0
 203 15 209 14 214 14 c 0
 262 14 313 63 313 152 c 2
 313 599 l 2
 313 630 311 638 219 638 c 2
 175 638 l 1
 175 683 l 1
 222 680 312 679 355 680 c 2
 496 683 l 1
 496 638 l 1
 422 638 417 638 417 606 c 2
EndSplineSet
EndChar

StartChar: K
Encoding: 75 75 40
Width: 825
Flags: W
LayerCount: 2
Fore
SplineSet
655 3 m 2
 616 4 543 3 498 0 c 1
 498 45 l 1
 512 45 527 44 540 47 c 0
 552 50 560 55 560 66 c 0
 560 76 552 87 545 96 c 2
 361 352 l 1
 248 252 l 1
 248 83 l 2
 248 52 251 45 323 45 c 2
 356 45 l 1
 356 0 l 1
 311 3 233 3 193 3 c 0
 154 3 76 3 32 0 c 1
 32 45 l 1
 65 45 l 2
 139 45 140 53 140 83 c 2
 140 600 l 2
 140 630 139 638 65 638 c 2
 32 638 l 1
 32 683 l 1
 77 680 155 680 194 680 c 0
 234 680 311 680 356 683 c 1
 356 638 l 1
 323 638 l 2
 251 638 248 631 248 600 c 2
 248 304 l 1
 564 586 l 2
 572 594 580 601 580 614 c 0
 580 619 577 638 532 639 c 1
 532 683 l 1
 575 680 635 680 672 680 c 0
 701 680 733 680 768 683 c 1
 768 638 l 1
 709 638 658 618 618 582 c 2
 433 417 l 1
 671 88 l 2
 701 47 720 45 783 45 c 1
 783 0 l 1
 655 3 l 2
EndSplineSet
EndChar

StartChar: L
Encoding: 76 76 41
Width: 662
Flags: W
LayerCount: 2
Fore
SplineSet
590 0 m 1
 32 0 l 1
 32 45 l 1
 65 45 l 2
 139 45 140 53 140 83 c 2
 140 600 l 2
 140 630 139 638 65 638 c 2
 32 638 l 1
 32 683 l 1
 77 680 157 680 198 680 c 0
 241 680 336 680 381 683 c 1
 381 638 l 1
 339 638 l 2
 249 638 247 629 247 599 c 2
 247 76 l 2
 247 49 247 45 290 45 c 2
 376 45 l 2
 553 45 568 160 580 267 c 1
 620 267 l 1
 590 0 l 1
EndSplineSet
EndChar

StartChar: M
Encoding: 77 77 42
Width: 1236
Flags: W
LayerCount: 2
Fore
SplineSet
921 0 m 1
 921 40 l 1
 1009 110 1058 225 1058 355 c 0
 1058 487 995 639 851 639 c 0
 761 639 671 557 671 473 c 2
 671 83 l 2
 671 52 674 45 746 45 c 2
 779 45 l 1
 779 0 l 1
 732 3 662 3 621 3 c 0
 580 3 509 3 462 0 c 1
 462 45 l 1
 495 45 l 2
 568 45 570 52 570 83 c 2
 570 396 l 2
 570 516 495 641 386 641 c 0
 253 641 182 493 182 364 c 0
 182 243 217 127 317 40 c 1
 317 0 l 1
 186 3 l 1
 56 0 l 1
 56 45 l 1
 101 45 136 51 159 58 c 0
 170 62 178 65 182 68 c 0
 186 71 186 73 184 74 c 0
 134 126 65 240 65 339 c 0
 65 523 205 692 405 692 c 0
 499 692 573 647 624 580 c 1
 642 579 l 1
 702 646 781 696 887 696 c 0
 1052 696 1173 538 1173 379 c 0
 1173 249 1106 124 1050 66 c 0
 1047 63 1046 63 1051 60 c 0
 1075 47 1148 44 1177 45 c 1
 1180 0 l 1
 921 0 l 1
EndSplineSet
EndChar

StartChar: N
Encoding: 78 78 43
Width: 795
Flags: W
LayerCount: 2
Fore
SplineSet
183 600 m 1
 183 110 l 2
 183 85 185 45 291 45 c 1
 291 0 l 1
 161 3 l 1
 32 0 l 1
 32 45 l 1
 138 45 140 85 140 110 c 2
 140 622 l 2
 140 634 139 635 122 636 c 0
 106 638 85 638 70 638 c 2
 32 638 l 1
 32 683 l 1
 217 683 l 2
 239 683 243 681 254 667 c 2
 611 177 l 1
 611 573 l 2
 611 598 609 638 502 638 c 1
 502 683 l 1
 632 680 l 1
 762 683 l 1
 762 638 l 1
 656 638 654 598 654 573 c 2
 654 33 l 2
 654 10 653 0 632 0 c 0
 620 0 617 3 608 16 c 2
 183 600 l 1
EndSplineSet
EndChar

StartChar: O
Encoding: 79 79 44
Width: 825
Flags: W
LayerCount: 2
Fore
SplineSet
411 -22 m 0
 221 -22 56 134 56 339 c 0
 56 545 220 705 411 705 c 0
 606 705 767 543 767 339 c 0
 767 137 606 -22 411 -22 c 0
411 666 m 0
 328 666 179 603 179 353 c 0
 179 99 317 18 412 18 c 0
 503 18 644 95 644 353 c 0
 644 600 498 666 411 666 c 0
EndSplineSet
EndChar

StartChar: P
Encoding: 80 80 45
Width: 796
Flags: W
LayerCount: 2
Fore
SplineSet
444 83 m 0
 395 83 348 89 308 126 c 1
 312 167 322 203 368 237 c 1
 396 183 432 138 491 138 c 0
 591 138 641 267 641 380 c 0
 641 498 598 636 459 636 c 0
 326 636 250 449 250 316 c 2
 250 -18 l 2
 250 -49 253 -56 325 -56 c 2
 357 -56 l 1
 357 -101 l 1
 314 -98 235 -98 195 -98 c 0
 156 -98 79 -98 34 -101 c 1
 34 -56 l 1
 67 -56 l 2
 142 -56 142 -48 142 -18 c 2
 142 600 l 2
 142 630 142 638 67 638 c 2
 34 638 l 1
 34 683 l 1
 180 683 l 2
 238 683 247 654 247 607 c 2
 247 538 l 1
 249 538 l 1
 283 603 365 693 479 693 c 0
 641 693 758 554 758 403 c 0
 758 232 615 83 444 83 c 0
EndSplineSet
EndChar

StartChar: Q
Encoding: 81 81 46
Width: 825
Flags: MW
HStem: -168 60 -22 34 672 33
VStem: 56 110 611 110
LayerCount: 2
Fore
SplineSet
901 -168 m 0
 763 -168 609 -65 529 -3 c 1
 492 -16 452 -23 411 -23 c 0
 221 -23 56 133 56 339 c 0
 56 545 220 705 411 705 c 0
 606 705 767 543 767 339 c 0
 767 214 706 106 614 42 c 1
 663 15 721 -21 785 -50 c 0
 850 -80 920 -102 990 -102 c 0
 1011 -102 1024 -100 1048 -99 c 1
 1048 -125 l 1
 1019 -147 960 -168 901 -168 c 0
411 666 m 0
 328 666 179 603 179 352 c 0
 179 98 317 17 412 17 c 0
 503 17 644 94 644 352 c 0
 644 600 498 666 411 666 c 0
EndSplineSet
EndChar

StartChar: R
Encoding: 82 82 47
Width: 766
Flags: W
LayerCount: 2
Fore
SplineSet
725 0 m 0
 709 0 688 -2 664 -1 c 0
 641 1 614 6 589 20 c 0
 541 48 492 101 469 165 c 0
 458 193 454 217 445 239 c 0
 438 259 429 276 410 293 c 0
 388 313 360 322 330 324 c 0
 323 324 316 324 307 324 c 1
 307 363 l 1
 416 363 490 434 490 514 c 0
 490 589 452 636 396 636 c 0
 294 636 250 517 250 454 c 2
 250 82 l 2
 250 51 253 44 325 44 c 2
 357 44 l 1
 357 -1 l 1
 314 2 235 2 195 2 c 0
 156 2 79 2 34 -1 c 1
 34 44 l 1
 67 44 l 2
 142 44 142 52 142 82 c 2
 142 600 l 2
 142 631 142 639 67 639 c 2
 34 639 l 1
 34 683 l 1
 180 683 l 2
 238 683 247 654 247 607 c 2
 247 577 l 1
 277 643 333 693 407 693 c 0
 493 693 606 630 606 507 c 0
 606 369 513 340 454 334 c 1
 521 307 562 269 585 202 c 0
 588 192 592 181 596 169 c 0
 603 147 609 126 617 113 c 0
 634 83 678 35 725 35 c 0
 739 35 750 29 750 17 c 0
 750 5 743 0 725 0 c 0
EndSplineSet
EndChar

StartChar: S
Encoding: 83 83 48
Width: 589
Flags: W
LayerCount: 2
Fore
SplineSet
320 -22 m 0
 231 -22 165 9 129 43 c 1
 99 -3 97 -7 97 -7 c 2
 92 -15 87 -22 75 -22 c 0
 58 -22 56 -12 56 9 c 2
 56 205 l 2
 56 226 57 236 77 236 c 0
 87 236 96 232 96 220 c 0
 97 196 100 174 107 152 c 0
 135 63 223 23 319 23 c 0
 401 23 450 88 450 156 c 0
 450 187 441 217 420 242 c 0
 396 273 372 281 335 290 c 0
 262 307 209 318 197 321 c 0
 113 349 56 423 56 508 c 0
 56 615 147 705 266 705 c 0
 323 705 369 691 411 658 c 0
 419 652 425 646 432 640 c 1
 464 689 l 2
 473 702 475 705 485 705 c 0
 503 705 503 694 503 674 c 2
 503 477 l 2
 503 455 503 447 483 447 c 0
 468 447 465 454 463 465 c 0
 457 505 448 545 425 582 c 0
 399 625 352 663 267 663 c 0
 191 663 138 607 138 542 c 0
 138 488 176 438 237 424 c 2
 371 393 l 2
 461 373 532 290 532 189 c 0
 532 78 446 -22 320 -22 c 0
EndSplineSet
EndChar

StartChar: T
Encoding: 84 84 49
Width: 765
Flags: W
LayerCount: 2
Fore
SplineSet
716 592 m 1
 672 607 662 610 616 610 c 0
 411 610 243 435 243 263 c 0
 243 150 318 25 432 25 c 0
 512 25 593 56 658 171 c 1
 699 145 713 130 722 88 c 1
 606 -8 479 -12 426 -12 c 0
 248 -12 123 83 123 237 c 0
 123 377 189 467 301 546 c 0
 332 567 364 587 395 607 c 1
 395 610 l 1
 231 610 l 2
 99 610 90 606 75 443 c 1
 35 443 l 1
 55 678 l 1
 608 678 l 2
 612 678 619 677 629 676 c 0
 674 674 701 691 713 739 c 1
 754 730 l 1
 716 592 l 1
EndSplineSet
EndChar

StartChar: U
Encoding: 85 85 50
Width: 851
Flags: W
LayerCount: 2
Fore
SplineSet
608 3 m 1
 608 81 l 1
 565 19 495 -22 411 -22 c 0
 264 -22 140 87 140 230 c 2
 140 600 l 2
 140 630 139 638 65 638 c 2
 32 638 l 1
 32 683 l 1
 77 680 155 680 194 680 c 0
 234 680 311 680 356 683 c 1
 356 638 l 1
 323 638 l 2
 251 638 248 631 248 600 c 2
 248 226 l 2
 248 45 367 23 413 23 c 0
 509 23 607 98 607 233 c 2
 607 603 l 2
 607 627 606 638 499 638 c 1
 499 683 l 1
 499 683 600 680 656 680 c 0
 706 680 813 683 813 683 c 1
 813 638 l 1
 707 638 705 628 705 599 c 2
 705 113 l 2
 705 65 706 43 813 43 c 1
 813 0 l 1
 608 3 l 1
EndSplineSet
EndChar

StartChar: V
Encoding: 86 86 51
Width: 795
Flags: W
LayerCount: 2
Fore
SplineSet
662 578 m 2
 428 1 l 2
 422 -14 419 -22 396 -22 c 0
 379 -22 372 -16 364 4 c 2
 120 606 l 2
 107 638 94 638 17 638 c 1
 17 683 l 1
 158 680 l 2
 197 679 269 680 315 683 c 1
 315 638 l 1
 297 638 276 639 258 637 c 0
 240 634 229 628 229 618 c 0
 229 617 229 613 234 602 c 2
 428 124 l 1
 613 580 l 2
 615 586 618 591 618 597 c 0
 618 614 600 637 541 639 c 1
 541 683 l 1
 668 680 l 2
 695 679 737 681 777 683 c 1
 777 638 l 1
 701 637 676 611 662 578 c 2
EndSplineSet
EndChar

StartChar: W
Encoding: 87 87 52
Width: 1243
Flags: W
LayerCount: 2
Fore
SplineSet
1037 -14 m 1
 1037 72 l 1
 993 20 889 -14 820 -14 c 0
 773 -14 681 -8 606 79 c 1
 530 14 447 -14 359 -14 c 0
 222 -14 118 40 118 179 c 2
 118 595 l 2
 118 618 98 633 37 633 c 1
 37 678 l 1
 37 678 120 675 167 675 c 0
 216 675 299 678 299 678 c 1
 299 633 l 1
 221 633 217 631 217 595 c 2
 217 127 l 2
 217 68 301 26 367 26 c 0
 469 26 590 95 590 191 c 2
 590 595 l 2
 590 631 586 633 509 633 c 1
 509 678 l 1
 509 678 590 675 639 675 c 0
 687 675 771 678 771 678 c 1
 771 633 l 1
 692 633 689 631 689 595 c 2
 689 123 l 2
 689 73 753 27 817 27 c 0
 884 27 1030 86 1030 181 c 2
 1030 595 l 2
 1030 631 1026 633 949 633 c 1
 949 678 l 1
 949 678 1030 675 1079 675 c 0
 1127 675 1211 678 1211 678 c 1
 1211 633 l 1
 1132 633 1129 631 1129 595 c 2
 1129 89 l 2
 1129 47 1131 41 1211 41 c 1
 1211 -3 l 1
 1037 -14 l 1
EndSplineSet
EndChar

StartChar: X
Encoding: 88 88 53
Width: 795
Flags: W
LayerCount: 2
Fore
SplineSet
629 3 m 2
 589 4 513 3 469 0 c 1
 469 43 l 1
 522 46 536 62 536 66 c 0
 536 67 534 73 533 73 c 2
 373 299 l 1
 231 102 l 2
 223 92 222 89 222 82 c 0
 222 69 236 45 287 44 c 1
 287 0 l 1
 198 6 111 2 22 0 c 1
 22 45 l 1
 82 45 136 54 169 98 c 2
 172 102 l 2
 173 104 174 105 176 106 c 2
 345 339 l 1
 154 608 l 2
 137 632 121 638 64 638 c 2
 36 638 l 1
 36 683 l 1
 179 680 l 2
 219 679 296 680 340 683 c 1
 340 640 l 1
 287 637 271 621 271 617 c 0
 271 614 277 608 278 605 c 2
 407 425 l 1
 426 451 489 536 525 588 c 0
 528 593 529 595 529 601 c 0
 529 618 510 637 463 640 c 1
 463 683 l 1
 555 677 638 681 728 683 c 1
 728 638 l 1
 631 637 597 608 575 578 c 2
 434 385 l 1
 653 76 l 2
 673 49 691 45 745 45 c 2
 773 45 l 1
 773 0 l 1
 629 3 l 2
EndSplineSet
EndChar

StartChar: Y
Encoding: 89 89 54
Width: 795
Flags: W
LayerCount: 2
Fore
SplineSet
650 578 m 2
 448 273 l 1
 448 85 l 2
 448 52 450 45 526 45 c 2
 556 45 l 1
 556 0 l 1
 512 3 437 3 396 3 c 0
 356 3 281 3 236 0 c 1
 236 45 l 1
 268 45 l 2
 344 45 344 53 344 83 c 2
 344 273 l 1
 124 606 l 2
 109 629 103 638 35 638 c 2
 8 638 l 1
 8 683 l 1
 153 680 l 2
 193 679 269 680 315 683 c 1
 315 638 l 1
 256 638 242 634 242 622 c 0
 242 616 245 613 248 608 c 2
 431 329 l 1
 597 581 l 2
 601 588 607 599 607 608 c 0
 607 622 596 638 547 638 c 1
 547 683 l 1
 675 680 l 2
 704 679 745 681 785 683 c 1
 785 638 l 1
 745 638 687 634 650 578 c 2
EndSplineSet
EndChar

StartChar: Z
Encoding: 90 90 55
Width: 648
Flags: W
LayerCount: 2
Fore
SplineSet
579 0 m 1
 91 0 l 2
 64 0 56 1 56 24 c 0
 56 34 57 35 65 47 c 2
 464 638 l 1
 313 638 l 2
 148 638 118 564 110 449 c 1
 70 449 l 1
 82 683 l 1
 556 683 l 2
 581 683 590 682 590 660 c 0
 590 650 589 648 583 638 c 2
 184 48 l 1
 342 48 l 2
 529 48 548 133 557 276 c 1
 597 276 l 1
 579 0 l 1
EndSplineSet
EndChar

StartChar: a
Encoding: 97 97 56
Width: 558
Flags: W
LayerCount: 2
Fore
SplineSet
385 0 m 1
 342 85 l 1
 340 85 l 1
 233 63 148 49 57 -13 c 1
 43 -13 25 -8 20 13 c 1
 90 120 181 185 200 318 c 0
 207 365 156 389 77 389 c 1
 77 432 l 1
 200 430 l 2
 229 430 239 422 254 396 c 2
 440 80 l 2
 461 44 503 43 546 43 c 1
 546 0 l 1
 385 0 l 1
249 258 m 1
 248 258 l 1
 210 203 166 129 153 104 c 1
 210 124 284 130 316 132 c 1
 298 168 263 230 249 258 c 1
EndSplineSet
EndChar

StartChar: b
Encoding: 98 98 57
Width: 480
Flags: MW
HStem: -14 39 216 20 410 34
VStem: 71 76 340 83
LayerCount: 2
Fore
SplineSet
222 -14 m 0
 118 -14 72 20 72 55 c 2
 72 372 l 2
 72 391 71 406 26 406 c 2
 4 406 l 1
 4 449 l 1
 57 447 109 448 159 450 c 1
 159 387 l 1
 197 425 237 444 299 444 c 0
 337 444 424 417 424 357 c 0
 424 313 384 259 310 231 c 1
 384 219 452 172 452 120 c 0
 452 52 375 -14 222 -14 c 0
208 213 m 1
 162 237 l 1
 294 257 328 320 328 357 c 0
 328 385 301 405 267 405 c 0
 240 405 197 386 159 337 c 1
 159 50 l 2
 159 42 168 30 225 30 c 0
 269 30 357 34 357 121 c 0
 357 181 271 213 208 213 c 1
EndSplineSet
EndChar

StartChar: c
Encoding: 99 99 58
Width: 484
Flags: W
LayerCount: 2
Fore
SplineSet
449 81 m 0
 448 80 448 78 447 77 c 0
 416 21 365 -14 273 -14 c 0
 147 -14 35 87 35 219 c 0
 35 350 146 451 273 451 c 0
 337 451 398 448 447 375 c 1
 447 332 l 2
 447 316 446 307 429 307 c 0
 415 307 411 317 408 326 c 0
 388 386 343 414 273 414 c 0
 247 414 134 399 134 218 c 0
 134 37 253 24 281 24 c 0
 351 24 381 48 415 92 c 0
 426 107 450 101 450 88 c 0
 450 85 450 83 449 81 c 0
EndSplineSet
EndChar

StartChar: d
Encoding: 100 100 59
Width: 517
Flags: W
LayerCount: 2
Fore
SplineSet
226 -10 m 0
 115 -10 28 75 28 177 c 0
 28 222 44 262 71 295 c 1
 145 324 l 1
 145 291 l 1
 132 262 125 221 125 186 c 0
 125 73 181 23 226 23 c 0
 273 23 348 57 348 186 c 0
 348 301 236 349 183 368 c 0
 138 385 89 393 40 393 c 1
 40 437 l 1
 86 436 187 438 187 438 c 1
 280 404 435 335 435 177 c 0
 435 70 332 -10 226 -10 c 0
EndSplineSet
EndChar

StartChar: e
Encoding: 101 101 60
Width: 484
Flags: MW
HStem: -14 32 420 31
VStem: 36 87 300 34 388 31
LayerCount: 2
Fore
SplineSet
449 81 m 0
 448 80 448 78 447 77 c 0
 416 21 365 -14 273 -14 c 0
 147 -14 35 87 35 219 c 0
 35 350 146 451 273 451 c 0
 337 451 398 448 447 375 c 1
 447 332 l 2
 447 316 446 307 429 307 c 0
 415 307 411 317 408 326 c 0
 388 386 343 414 273 414 c 0
 248 414 144 400 135 244 c 1
 259 252 l 2
 289 253 302 256 308 263 c 0
 311 267 313 272 314 280 c 0
 315 288 315 299 315 315 c 1
 357 315 l 1
 357 136 l 1
 315 136 l 1
 315 191 315 196 259 200 c 2
 134 209 l 1
 137 37 254 24 281 24 c 0
 351 24 381 48 415 92 c 0
 426 107 450 101 450 88 c 0
 450 85 450 83 449 81 c 0
EndSplineSet
EndChar

StartChar: f
Encoding: 102 102 61
Width: 471
Flags: W
LayerCount: 2
Fore
SplineSet
406 275 m 1
 398 383 385 394 279 394 c 2
 228 394 l 2
 193 394 192 391 192 345 c 2
 192 232 l 1
 259 237 l 2
 315 242 315 245 315 300 c 1
 357 300 l 1
 357 121 l 1
 315 121 l 1
 315 138 315 149 314 157 c 0
 313 165 311 170 308 174 c 0
 302 181 289 184 259 186 c 2
 192 190 l 1
 192 -24 l 2
 192 -57 198 -63 275 -63 c 2
 293 -63 l 1
 293 -100 l 1
 239 -98 195 -97 149 -97 c 0
 138 -97 102 -97 23 -100 c 1
 23 -63 l 1
 39 -63 l 2
 99 -63 104 -58 104 -26 c 2
 104 357 l 2
 104 389 98 394 38 394 c 2
 23 394 l 1
 23 430 l 1
 434 430 l 1
 446 275 l 1
 406 275 l 1
EndSplineSet
EndChar

StartChar: g
Encoding: 103 103 62
Width: 484
Flags: W
LayerCount: 2
Fore
SplineSet
275 -14 m 0
 147 -14 35 87 35 219 c 0
 35 350 146 451 275 451 c 0
 338 451 398 448 447 375 c 1
 447 332 l 2
 447 316 446 307 430 307 c 0
 415 307 411 317 408 326 c 0
 388 387 344 414 275 414 c 0
 247 414 134 399 134 218 c 0
 134 37 253 24 281 24 c 0
 355 24 423 79 423 130 c 0
 423 162 403 213 339 213 c 0
 303 213 278 184 259 146 c 1
 226 171 218 194 215 223 c 1
 243 249 275 259 308 259 c 0
 442 259 469 160 469 130 c 0
 469 49 383 -14 275 -14 c 0
EndSplineSet
EndChar

StartChar: h
Encoding: 104 104 63
Width: 591
Flags: W
LayerCount: 2
Fore
SplineSet
462 -98 m 0
 442 -117 386 -155 321 -155 c 0
 294 -155 276 -147 276 -136 c 0
 276 -126 292 -119 320 -119 c 0
 421 -119 471 25 471 136 c 0
 471 301 389 346 331 346 c 0
 292 346 199 317 199 192 c 2
 199 96 l 2
 199 86 197 69 200 59 c 0
 201 51 203 46 206 42 c 0
 213 35 228 33 267 33 c 2
 280 33 l 1
 280 -4 l 1
 233 -2 194 -1 154 -1 c 0
 131 -1 97 -1 33 -4 c 1
 33 33 l 1
 49 33 l 2
 109 33 114 39 114 71 c 2
 114 386 l 2
 114 418 108 423 48 423 c 2
 33 423 l 1
 33 459 l 1
 80 457 120 457 160 457 c 0
 182 457 216 456 280 459 c 1
 280 423 l 1
 267 423 l 2
 206 423 201 419 199 383 c 2
 197 310 l 1
 224 349 271 383 339 383 c 0
 485 383 559 256 559 136 c 0
 559 -1 482 -79 462 -98 c 0
EndSplineSet
EndChar

StartChar: i
Encoding: 105 105 64
Width: 303
Flags: W
LayerCount: 2
Fore
SplineSet
152 3 m 0
 107 3 73 1 32 0 c 1
 32 36 l 1
 48 36 l 2
 106 36 111 42 111 74 c 2
 111 359 l 2
 111 393 104 397 45 397 c 2
 32 397 l 1
 32 432 l 1
 76 430 112 430 151 430 c 0
 191 430 230 430 278 432 c 1
 278 397 l 1
 263 397 l 2
 199 397 198 389 198 341 c 2
 198 93 l 2
 198 45 199 36 263 36 c 2
 278 36 l 1
 278 0 l 1
 230 2 192 3 152 3 c 0
EndSplineSet
EndChar

StartChar: j
Encoding: 106 106 65
Width: 318
Flags: W
LayerCount: 2
Fore
SplineSet
267 396 m 2
 202 396 201 387 201 338 c 2
 201 91 l 2
 201 57 201 55 200 47 c 0
 191 -28 127 -101 18 -101 c 0
 -6 -101 -45 -91 -45 -72 c 0
 -45 -52 -25 -56 -12 -60 c 0
 -7 -61 -3 -63 0 -64 c 0
 5 -64 11 -65 16 -65 c 0
 64 -65 114 -16 114 71 c 2
 114 359 l 2
 114 393 106 396 47 396 c 2
 34 396 l 1
 34 432 l 1
 79 430 116 430 154 430 c 0
 194 430 234 430 282 432 c 1
 282 396 l 1
 267 396 l 2
EndSplineSet
EndChar

StartChar: k
Encoding: 107 107 66
Width: 583
Flags: W
LayerCount: 2
Fore
SplineSet
551 -12 m 0
 533 -17 480 -17 440 6 c 0
 403 28 352 81 334 132 c 0
 325 156 321 174 315 192 c 0
 307 217 294 233 272 246 c 1
 189 179 l 1
 189 81 l 2
 189 45 191 44 269 44 c 1
 269 0 l 1
 147 3 l 1
 26 0 l 1
 26 44 l 1
 104 44 108 45 108 81 c 2
 108 591 l 2
 108 633 105 639 26 639 c 1
 26 683 l 1
 192 694 l 1
 192 232 l 1
 327 341 l 2
 338 351 347 360 347 375 c 0
 347 382 341 391 317 393 c 1
 317 436 l 1
 339 435 404 433 441 433 c 0
 469 433 483 433 522 436 c 1
 522 393 l 1
 502 391 486 390 467 384 c 0
 445 377 419 365 387 341 c 0
 379 334 323 291 307 276 c 1
 350 261 391 241 420 186 c 0
 426 174 434 154 442 133 c 0
 450 113 458 93 464 83 c 0
 478 58 513 21 549 21 c 0
 561 21 571 16 571 5 c 0
 571 -6 563 -9 551 -12 c 0
EndSplineSet
EndChar

StartChar: l
Encoding: 108 108 67
Width: 519
Flags: W
LayerCount: 2
Fore
SplineSet
472 0 m 1
 31 0 l 1
 31 40 l 1
 47 40 l 2
 96 40 106 44 106 73 c 2
 106 608 l 2
 106 638 96 642 47 642 c 2
 31 642 l 1
 31 682 l 1
 75 680 115 679 153 679 c 0
 196 679 238 680 290 682 c 1
 290 642 l 1
 271 642 l 2
 197 642 196 632 196 599 c 2
 196 72 l 2
 196 40 198 40 245 40 c 2
 280 40 l 2
 351 40 390 51 418 85 c 0
 446 118 449 165 453 205 c 1
 494 205 l 1
 472 0 l 1
EndSplineSet
EndChar

StartChar: m
Encoding: 109 109 68
Width: 833
Flags: W
LayerCount: 2
Fore
SplineSet
583 0 m 1
 583 29 l 1
 639 73 669 144 669 224 c 0
 669 308 650 399 563 399 c 0
 509 399 463 349 463 297 c 2
 463 58 l 2
 463 44 468 36 522 36 c 2
 545 36 l 1
 545 0 l 1
 513 2 445 2 419 2 c 0
 392 2 326 2 294 0 c 1
 294 36 l 1
 318 36 l 2
 370 36 373 43 373 58 c 2
 373 249 l 2
 373 324 337 400 271 400 c 0
 192 400 167 310 167 229 c 0
 167 154 189 83 252 29 c 1
 252 0 l 1
 146 2 l 1
 61 0 l 1
 61 33 l 1
 92 33 114 37 128 42 c 0
 134 44 139 46 142 47 c 2
 142 47 143 47 143 47 c 1
 111 79 67 152 67 214 c 0
 67 330 155 436 283 436 c 0
 342 436 390 407 422 366 c 1
 431 366 l 1
 468 407 519 438 586 438 c 0
 691 438 768 339 768 239 c 0
 768 157 725 78 689 42 c 1
 689 42 689 42 690 42 c 0
 703 34 750 33 770 34 c 1
 772 0 l 1
 583 0 l 1
EndSplineSet
EndChar

StartChar: n
Encoding: 110 110 69
Width: 585
Flags: W
LayerCount: 2
Fore
SplineSet
479 324 m 2
 479 40 l 2
 479 18 471 0 453 0 c 0
 435 0 414 24 391 51 c 2
 146 346 l 1
 146 107 l 2
 146 56 175 44 228 43 c 1
 228 0 l 1
 188 2 155 3 123 3 c 0
 91 3 61 2 21 0 c 1
 21 43 l 1
 90 45 103 70 103 108 c 2
 103 384 l 1
 81 389 56 389 32 389 c 2
 21 389 l 1
 21 432 l 1
 148 432 l 2
 176 432 188 422 209 396 c 2
 436 122 l 1
 436 320 l 2
 436 354 432 387 354 389 c 1
 354 432 l 1
 394 430 427 429 459 429 c 0
 491 429 521 430 561 432 c 1
 561 389 l 1
 483 387 479 353 479 324 c 2
EndSplineSet
EndChar

StartChar: o
Encoding: 111 111 70
Width: 530
Flags: W
LayerCount: 2
Fore
SplineSet
264 -11 m 0
 138 -11 26 85 26 214 c 0
 26 339 131 448 265 448 c 0
 395 448 502 342 502 214 c 0
 502 87 394 -11 264 -11 c 0
399 287 m 0
 395 310 389 333 376 354 c 0
 350 393 307 413 264 413 c 0
 225 413 177 394 151 352 c 0
 128 313 127 266 127 222 c 0
 127 177 129 127 152 88 c 0
 178 45 223 27 265 27 c 0
 315 27 357 53 379 95 c 0
 400 136 402 186 402 222 c 0
 402 241 402 263 399 287 c 0
EndSplineSet
EndChar

StartChar: p
Encoding: 112 112 71
Width: 589
Flags: W
LayerCount: 2
Fore
SplineSet
316 -15 m 0
 255 -15 215 14 195 36 c 1
 195 -113 l 2
 195 -149 198 -149 276 -149 c 1
 276 -194 l 1
 150 -191 l 1
 26 -194 l 1
 26 -149 l 1
 104 -149 108 -149 108 -113 c 2
 108 345 l 2
 108 382 107 388 26 388 c 1
 26 431 l 1
 192 442 l 1
 192 388 l 1
 217 411 260 442 330 442 c 0
 451 442 555 341 555 214 c 0
 555 84 444 -15 316 -15 c 0
322 403 m 0
 272 403 223 377 195 330 c 1
 195 114 l 2
 195 103 194 98 200 89 c 0
 225 50 260 20 312 20 c 0
 382 20 454 97 454 214 c 0
 454 324 392 403 322 403 c 0
EndSplineSet
EndChar

StartChar: q
Encoding: 113 113 72
Width: 530
Flags: W
LayerCount: 2
Fore
SplineSet
323 -7 m 0
 322 -7 321 -7 319 -7 c 0
 301 -11 283 -14 264 -14 c 0
 138 -14 26 83 26 212 c 0
 26 338 131 448 265 448 c 0
 395 448 502 341 502 212 c 0
 502 120 447 45 368 8 c 1
 379 -14 395 -36 423 -36 c 0
 448 -36 472 -23 477 -1 c 0
 478 8 481 20 496 20 c 0
 503 20 511 11 511 -2 c 0
 511 -35 493 -122 418 -122 c 0
 348 -122 334 -56 323 -7 c 0
376 352 m 0
 350 392 307 412 264 412 c 0
 225 412 178 394 151 351 c 0
 128 312 127 265 127 220 c 0
 127 153 132 80 198 42 c 1
 197 45 197 48 197 51 c 0
 197 76 221 111 265 111 c 0
 306 111 330 82 346 53 c 1
 397 93 402 161 402 220 c 0
 402 258 402 313 376 352 c 0
265 77 m 0
 245 77 232 64 232 50 c 0
 232 42 240 24 265 24 c 0
 275 24 290 26 312 33 c 1
 303 57 292 77 265 77 c 0
EndSplineSet
EndChar

StartChar: r
Encoding: 114 114 73
Width: 506
Flags: W
LayerCount: 2
Fore
SplineSet
475 2 m 0
 464 2 450 0 435 1 c 0
 420 2 403 5 386 14 c 0
 356 32 320 66 305 108 c 0
 295 136 294 166 269 188 c 0
 250 205 228 206 204 206 c 1
 204 234 l 1
 318 252 318 300 318 337 c 0
 318 368 288 405 258 405 c 0
 224 405 187 369 160 331 c 1
 160 81 l 2
 160 59 161 52 168 48 c 0
 172 46 178 44 188 44 c 0
 198 43 211 43 231 43 c 1
 231 0 l 1
 119 3 l 1
 10 0 l 1
 10 43 l 1
 69 43 72 43 72 81 c 2
 72 372 l 2
 72 391 71 406 26 406 c 2
 5 406 l 1
 4 449 l 1
 57 447 109 448 160 450 c 1
 160 388 l 1
 197 425 240 444 288 444 c 0
 328 444 413 414 413 337 c 0
 413 292 380 243 301 218 c 1
 362 199 382 174 397 117 c 0
 400 110 402 104 405 97 c 0
 407 91 409 86 411 82 c 0
 421 63 446 34 475 34 c 0
 486 34 494 27 494 18 c 0
 494 11 490 2 475 2 c 0
EndSplineSet
EndChar

StartChar: s
Encoding: 115 115 74
Width: 418
Flags: W
LayerCount: 2
Fore
SplineSet
211 -11 m 0
 190 -11 143 -10 98 28 c 1
 92 23 88 18 84 13 c 0
 79 6 62 -11 51 -11 c 0
 34 -11 32 -1 32 20 c 2
 32 147 l 2
 32 167 33 179 53 179 c 0
 68 179 70 172 74 156 c 0
 94 75 130 24 211 24 c 0
 288 24 320 60 320 105 c 0
 320 169 243 184 219 188 c 0
 182 195 156 200 134 206 c 0
 113 213 96 221 79 234 c 0
 49 257 32 285 32 322 c 0
 32 381 75 448 205 448 c 0
 220 448 261 448 302 422 c 1
 315 434 l 2
 328 447 332 448 340 448 c 0
 357 448 359 438 359 417 c 2
 359 320 l 2
 359 298 357 290 338 290 c 0
 329 290 319 293 318 305 c 0
 316 328 313 351 300 372 c 0
 286 395 259 415 205 415 c 0
 119 415 96 378 96 349 c 0
 96 300 156 287 218 276 c 0
 260 268 304 260 339 228 c 0
 352 216 385 185 385 131 c 0
 385 57 334 -11 211 -11 c 0
EndSplineSet
EndChar

StartChar: t
Encoding: 116 116 75
Width: 513
Flags: W
LayerCount: 2
Fore
SplineSet
229 376 m 1
 159 376 l 2
 137 376 120 378 107 376 c 0
 95 375 87 372 83 368 c 0
 71 358 67 338 61 280 c 1
 21 280 l 1
 34 434 l 1
 389 434 l 2
 397 434 432 436 444 471 c 1
 484 467 l 1
 458 364 l 1
 429 375 423 376 393 376 c 0
 265 376 178 277 178 169 c 0
 178 72 246 30 297 30 c 0
 335 30 369 49 412 125 c 1
 441 107 458 85 464 57 c 1
 388 -5 307 -8 272 -8 c 0
 158 -8 77 53 77 152 c 0
 77 269 134 320 229 376 c 1
EndSplineSet
EndChar

StartChar: u
Encoding: 117 117 76
Width: 589
Flags: W
LayerCount: 2
Fore
SplineSet
406 0 m 1
 406 86 l 1
 371 34 312 -11 258 -11 c 0
 93 -11 58 98 58 181 c 0
 58 249 84 313 116 372 c 0
 117 375 126 390 126 392 c 0
 126 398 110 398 58 398 c 1
 58 441 l 1
 231 442 l 1
 229 438 151 307 151 183 c 0
 151 103 182 24 263 24 c 0
 332 24 403 142 403 196 c 2
 403 350 l 2
 403 392 400 398 321 398 c 1
 321 441 l 1
 489 442 l 1
 489 91 l 2
 489 49 491 43 570 43 c 1
 570 0 l 1
 406 0 l 1
EndSplineSet
EndChar

StartChar: v
Encoding: 118 118 77
Width: 598
Flags: W
LayerCount: 2
Fore
SplineSet
307 -11 m 0
 143 -11 112 82 112 160 c 2
 112 315 l 2
 112 395 113 398 31 398 c 1
 31 442 l 1
 199 442 l 1
 199 113 l 2
 199 66 225 24 307 24 c 0
 395 24 457 112 457 272 c 0
 457 388 414 407 314 410 c 1
 314 442 l 1
 385 443 l 2
 493 445 556 354 556 272 c 0
 556 143 486 -11 307 -11 c 0
EndSplineSet
EndChar

StartChar: w
Encoding: 119 119 78
Width: 833
Flags: MW
HStem: 0 34 407 31
VStem: 66 89 355 78 634 88
LayerCount: 2
Fore
SplineSet
586 0 m 0
 519 0 468 31 431 72 c 1
 422 72 l 1
 390 31 342 2 283 2 c 0
 155 2 67 108 67 224 c 0
 67 286 111 359 143 391 c 1
 143 391 142 391 142 391 c 2
 140 392 138 393 136 394 c 2
 128 397 l 2
 114 402 92 405 61 405 c 1
 61 438 l 1
 146 436 l 1
 252 438 l 1
 252 409 l 1
 189 355 167 284 167 209 c 0
 167 128 192 38 271 38 c 0
 337 38 373 114 373 189 c 2
 373 380 l 2
 373 395 370 402 318 402 c 2
 294 402 l 1
 294 438 l 1
 326 436 419 436 419 436 c 2
 452 435 462 412 462 388 c 2
 462 141 l 2
 462 89 509 39 563 39 c 0
 650 39 669 130 669 214 c 0
 669 351 603 404 503 406 c 1
 503 439 l 1
 596 439 l 2
 685 439 768 329 768 219 c 0
 768 99 692 0 586 0 c 0
EndSplineSet
EndChar

StartChar: x
Encoding: 120 120 79
Width: 560
Flags: W
LayerCount: 2
Fore
SplineSet
442 3 m 0
 404 3 367 2 321 0 c 1
 321 35 l 1
 352 38 359 48 359 57 c 0
 359 64 350 76 330 100 c 0
 313 121 289 146 265 178 c 1
 228 135 206 111 193 95 c 0
 181 78 179 71 179 62 c 0
 179 44 192 39 211 34 c 1
 211 0 l 1
 169 2 137 3 104 3 c 0
 74 3 47 2 10 0 c 1
 10 35 l 1
 67 38 99 56 130 86 c 0
 146 101 162 119 180 141 c 0
 196 161 216 184 239 209 c 1
 114 359 l 2
 91 387 77 395 29 395 c 2
 15 395 l 1
 15 430 l 1
 52 429 81 428 119 428 c 0
 158 428 196 428 243 430 c 1
 243 396 l 1
 213 393 205 381 205 374 c 0
 205 372 205 372 205 370 c 0
 206 367 208 365 214 358 c 0
 224 344 244 318 288 266 c 1
 313 296 332 316 344 331 c 0
 357 347 363 357 363 369 c 0
 363 382 355 389 343 394 c 0
 339 395 334 396 330 397 c 1
 330 430 l 1
 371 428 405 428 439 428 c 0
 467 428 496 428 531 430 c 1
 531 396 l 1
 446 393 413 351 367 296 c 0
 351 277 334 257 314 235 c 1
 450 72 l 2
 473 44 486 36 535 36 c 2
 550 36 l 1
 550 0 l 1
 509 2 476 3 442 3 c 0
EndSplineSet
EndChar

StartChar: y
Encoding: 121 121 80
Width: 560
Flags: W
LayerCount: 2
Fore
SplineSet
480 363 m 0
 464 343 453 316 444 293 c 2
 328 16 l 2
 322 1 321 -1 321 -13 c 2
 321 -112 l 2
 321 -145 324 -150 388 -150 c 2
 403 -150 l 1
 403 -195 l 1
 356 -193 315 -192 276 -192 c 0
 252 -192 220 -192 156 -195 c 1
 156 -150 l 1
 167 -150 l 2
 236 -150 237 -145 237 -112 c 2
 237 -13 l 2
 237 -1 236 1 230 16 c 2
 89 354 l 2
 72 394 60 394 5 394 c 1
 5 430 l 1
 47 428 80 428 112 428 c 0
 152 428 189 428 235 430 c 1
 235 394 l 1
 218 394 176 396 176 373 c 0
 176 369 177 365 177 361 c 0
 184 344 277 124 302 61 c 1
 306 70 310 78 313 85 c 2
 408 316 l 2
 413 328 421 342 421 356 c 0
 421 378 405 392 371 396 c 1
 371 430 l 1
 408 428 439 428 469 428 c 0
 495 428 520 428 553 430 c 1
 553 396 l 1
 513 392 494 380 480 363 c 0
EndSplineSet
EndChar

StartChar: z
Encoding: 122 122 81
Width: 471
Flags: W
LayerCount: 2
Fore
SplineSet
410 0 m 1
 60 0 l 2
 37 0 26 1 26 21 c 0
 26 28 29 31 38 42 c 2
 318 396 l 1
 214 396 l 2
 105 396 88 365 81 261 c 1
 40 261 l 1
 53 431 l 1
 392 431 l 2
 414 431 426 429 426 411 c 0
 426 405 424 402 415 391 c 2
 136 37 l 1
 244 37 l 2
 358 37 378 76 388 194 c 1
 429 194 l 1
 410 0 l 1
EndSplineSet
EndChar

StartChar: dieresis
Encoding: 168 168 82
Width: 339
Flags: W
LayerCount: 2
Fore
SplineSet
261 557 m 0
 229 557 204 580 204 605 c 0
 204 627 225 652 262 652 c 0
 293 652 319 629 319 605 c 0
 319 582 298 557 261 557 c 0
77 557 m 0
 46 557 20 580 20 605 c 0
 20 627 42 652 78 652 c 0
 110 652 136 629 136 605 c 0
 136 582 114 557 77 557 c 0
EndSplineSet
EndChar

StartChar: tonos
Encoding: 900 900 83
Width: 177
Flags: W
LayerCount: 2
Fore
SplineSet
165 628 m 0
 156 617 138 597 105 559 c 2
 39 482 l 2
 32 475 14 490 14 494 c 0
 14 497 88 673 92 678 c 0
 99 690 109 700 126 700 c 0
 136 700 177 693 177 657 c 0
 177 648 175 642 165 628 c 0
EndSplineSet
EndChar

StartChar: dieresistonos
Encoding: 901 901 84
Width: 295
Flags: W
LayerCount: 2
Fore
SplineSet
260 639 m 0
 258 634 243 617 239 613 c 0
 201 568 162 524 122 477 c 1
 99 489 l 1
 99 496 171 664 177 677 c 0
 181 684 191 700 216 700 c 0
 256 700 266 668 266 658 c 0
 266 652 265 647 260 639 c 0
236 483 m 0
 209 483 189 504 189 527 c 0
 189 548 207 570 237 570 c 0
 266 570 286 550 286 527 c 0
 286 506 268 483 236 483 c 0
57 483 m 0
 29 483 8 504 8 527 c 0
 8 548 27 570 58 570 c 0
 86 570 106 550 106 527 c 0
 106 506 88 483 57 483 c 0
EndSplineSet
EndChar

StartChar: Alphatonos
Encoding: 902 902 85
Width: 753
Flags: W
LayerCount: 2
Fore
SplineSet
722 0 m 1
 701 4 557 3 544 0 c 0
 535 0 520 48 516 56 c 0
 505 82 496 113 487 135 c 1
 340 105 222 80 76 -20 c 1
 55 -20 31 -13 24 16 c 1
 79 101 151 202 210 292 c 0
 270 382 314 461 314 499 c 0
 314 521 307 539 292 559 c 0
 255 610 189 635 123 635 c 1
 123 683 l 1
 191 680 261 679 343 683 c 1
 638 66 l 2
 646 49 656 44 711 44 c 2
 736 44 l 1
 736 0 l 1
 722 0 l 1
166 134 m 1
 263 164 416 188 467 189 c 1
 439 246 383 361 359 407 c 1
 347 407 l 1
 338 393 293 327 250 262 c 0
 212 205 176 150 166 134 c 1
EndSplineSet
EndChar

StartChar: anoteleia
Encoding: 903 903 86
Width: 295
Flags: W
LayerCount: 2
Fore
SplineSet
145 323 m 0
 114 323 87 347 87 375 c 0
 87 406 114 430 147 430 c 0
 180 430 207 406 207 377 c 0
 207 347 180 323 145 323 c 0
EndSplineSet
EndChar

StartChar: Epsilontonos
Encoding: 904 904 87
Width: 765
Flags: W
LayerCount: 2
Fore
SplineSet
673 490 m 0
 653 490 654 498 650 512 c 0
 619 610 550 660 439 660 c 0
 381 660 194 632 180 376 c 1
 407 386 l 2
 504 390 513 403 513 490 c 1
 554 490 l 1
 554 216 l 1
 513 216 l 1
 513 303 504 317 407 321 c 2
 179 331 l 1
 183 53 380 23 440 23 c 0
 551 23 609 69 661 139 c 0
 668 149 674 157 689 149 c 0
 707 140 700 127 696 119 c 0
 646 33 569 -22 427 -22 c 0
 229 -22 56 135 56 342 c 0
 56 546 228 705 427 705 c 0
 528 705 623 700 697 588 c 1
 697 521 l 2
 697 500 697 490 673 490 c 0
EndSplineSet
EndChar

StartChar: Etatonos
Encoding: 905 905 88
Width: 795
Flags: W
LayerCount: 2
Fore
SplineSet
600 3 m 0
 560 3 482 3 439 0 c 1
 439 45 l 1
 471 45 l 2
 543 45 546 52 546 83 c 2
 546 333 l 1
 248 333 l 1
 248 83 l 2
 248 52 251 45 323 45 c 2
 355 45 l 1
 355 0 l 1
 311 3 233 3 193 3 c 0
 154 3 76 3 32 0 c 1
 32 45 l 1
 65 45 l 2
 139 45 140 53 140 83 c 2
 140 600 l 2
 140 630 139 638 65 638 c 2
 32 638 l 1
 32 683 l 1
 77 680 155 680 194 680 c 0
 234 680 311 680 355 683 c 1
 355 638 l 1
 323 638 l 2
 251 638 248 631 248 600 c 2
 248 378 l 1
 546 378 l 1
 546 600 l 2
 546 631 543 638 471 638 c 2
 439 638 l 1
 439 683 l 1
 482 680 561 680 601 680 c 0
 640 680 717 680 762 683 c 1
 762 638 l 1
 729 638 l 2
 654 638 654 630 654 600 c 2
 654 83 l 2
 654 53 654 45 729 45 c 2
 762 45 l 1
 762 0 l 1
 717 3 639 3 600 3 c 0
EndSplineSet
EndChar

StartChar: Iotatonos
Encoding: 906 906 89
Width: 383
Flags: W
LayerCount: 2
Fore
SplineSet
337 0 m 2
 319 3 65 3 45 0 c 2
 26 0 l 1
 26 46 l 1
 52 46 l 2
 120 46 129 49 137 65 c 1
 137 619 l 1
 132 626 129 630 121 633 c 0
 110 636 91 637 52 637 c 2
 26 637 l 1
 26 683 l 1
 45 683 l 2
 63 680 317 680 337 683 c 2
 355 683 l 1
 355 637 l 1
 330 637 l 2
 258 637 252 632 246 619 c 1
 246 65 l 1
 251 51 256 46 330 46 c 2
 355 46 l 1
 355 0 l 1
 337 0 l 2
EndSplineSet
EndChar

StartChar: Omicrontonos
Encoding: 908 908 90
Width: 825
Flags: W
LayerCount: 2
Fore
SplineSet
411 -22 m 0
 221 -22 56 134 56 339 c 0
 56 545 220 705 411 705 c 0
 606 705 767 543 767 339 c 0
 767 137 606 -22 411 -22 c 0
411 666 m 0
 328 666 179 603 179 353 c 0
 179 99 317 18 412 18 c 0
 503 18 644 95 644 353 c 0
 644 600 498 666 411 666 c 0
EndSplineSet
EndChar

StartChar: Upsilontonos
Encoding: 910 910 91
Width: 825
Flags: W
LayerCount: 2
Fore
SplineSet
412 492 m 1
 430 586 488 702 617 705 c 0
 734 708 768 598 768 541 c 0
 768 507 755 452 682 452 c 0
 638 452 628 480 628 500 c 0
 628 527 646 544 680 547 c 0
 703 549 714 555 714 569 c 0
 714 605 602 646 536 579 c 0
 504 548 482 495 473 427 c 0
 470 409 470 400 469 376 c 0
 467 351 467 309 466 226 c 0
 466 139 467 98 467 78 c 0
 468 75 468 64 469 61 c 2
 472 58 l 2
 477 50 497 46 570 46 c 2
 601 46 l 1
 601 0 l 1
 582 0 l 2
 562 3 264 3 243 0 c 2
 224 0 l 1
 224 46 l 1
 254 46 l 2
 327 46 347 51 353 58 c 0
 354 59 355 60 355 62 c 0
 356 64 357 67 357 76 c 0
 358 95 358 134 358 215 c 0
 358 300 358 370 357 379 c 0
 346 530 292 615 199 615 c 0
 179 615 109 604 103 547 c 0
 101 531 97 527 80 526 c 0
 65 525 55 528 55 546 c 0
 55 605 94 694 179 704 c 0
 295 718 370 634 412 492 c 1
EndSplineSet
EndChar

StartChar: Omegatonos
Encoding: 911 911 92
Width: 1060
Flags: W
LayerCount: 2
Fore
SplineSet
734 -22 m 0
 617 -22 559 35 529 77 c 1
 471 -13 366 -22 325 -22 c 0
 168 -22 55 144 55 341 c 0
 55 545 181 705 336 705 c 0
 343 705 359 701 359 686 c 0
 359 675 351 666 339 666 c 0
 279 666 178 602 178 345 c 0
 178 138 244 19 334 19 c 0
 357 19 473 36 477 83 c 0
 478 86 477 90 477 93 c 2
 477 486 l 2
 477 507 473 512 454 514 c 0
 448 514 440 515 424 515 c 1
 424 558 l 1
 462 556 491 556 522 556 c 0
 547 556 592 555 635 558 c 1
 635 515 l 1
 623 515 600 515 590 510 c 0
 585 508 581 502 581 486 c 2
 581 93 l 2
 581 74 581 72 598 59 c 0
 635 28 686 19 725 19 c 2
 726 19 l 2
 815 19 880 140 880 345 c 0
 880 604 780 666 720 666 c 0
 708 666 700 675 700 686 c 0
 700 701 716 705 723 705 c 0
 807 705 881 658 932 585 c 0
 983 512 1004 426 1004 341 c 0
 1004 145 890 -22 734 -22 c 0
EndSplineSet
EndChar

StartChar: iotadieresistonos
Encoding: 912 912 93
Width: 303
Flags: W
LayerCount: 2
Fore
SplineSet
243 506 m 0
 211 506 187 532 187 561 c 0
 187 585 208 613 244 613 c 0
 276 613 301 587 301 561 c 0
 301 534 280 506 243 506 c 0
60 506 m 0
 28 506 3 532 3 561 c 0
 3 585 25 613 61 613 c 0
 93 613 118 587 118 561 c 0
 118 534 96 506 60 506 c 0
152 3 m 0
 106 3 72 1 31 0 c 1
 31 37 l 1
 47 37 l 2
 107 37 111 42 111 74 c 2
 111 362 l 2
 111 396 103 401 43 401 c 2
 31 401 l 1
 31 437 l 1
 75 434 112 434 151 434 c 0
 191 434 231 434 279 437 c 1
 279 401 l 1
 264 401 l 2
 199 401 198 394 198 345 c 2
 198 94 l 2
 198 45 199 37 264 37 c 2
 279 37 l 1
 279 0 l 1
 231 2 192 3 152 3 c 0
EndSplineSet
EndChar

StartChar: Alpha
Encoding: 913 913 94
Width: 753
Flags: W
LayerCount: 2
Fore
SplineSet
722 0 m 1
 701 4 557 3 544 0 c 0
 535 0 520 48 516 56 c 0
 505 82 496 113 487 135 c 1
 340 105 222 80 76 -20 c 1
 55 -20 31 -13 24 16 c 1
 79 101 151 202 210 292 c 0
 270 382 314 461 314 499 c 0
 314 521 307 539 292 559 c 0
 255 610 189 635 123 635 c 1
 123 683 l 1
 191 680 261 680 343 684 c 1
 638 66 l 2
 646 49 656 44 711 44 c 2
 736 44 l 1
 736 0 l 1
 722 0 l 1
166 134 m 1
 263 164 416 188 467 189 c 1
 439 247 383 361 359 407 c 1
 347 407 l 1
 338 393 293 327 250 263 c 0
 212 205 176 150 166 134 c 1
EndSplineSet
EndChar

StartChar: Beta
Encoding: 914 914 95
Width: 750
Flags: W
LayerCount: 2
Fore
SplineSet
346 -22 m 0
 182 -22 143 33 143 83 c 2
 143 600 l 2
 143 632 142 654 67 654 c 2
 22 654 l 1
 22 702 l 1
 101 699 170 699 244 703 c 1
 244 598 l 1
 305 662 369 693 467 693 c 0
 530 693 634 651 634 560 c 0
 634 490 537 399 457 360 c 1
 567 341 683 271 683 186 c 0
 683 83 586 -22 346 -22 c 0
327 337 m 1
 265 369 l 1
 460 399 517 501 517 560 c 0
 517 607 473 640 418 640 c 0
 374 640 304 594 244 514 c 1
 244 76 l 2
 244 57 262 40 352 40 c 0
 419 40 563 45 563 187 c 0
 563 285 425 337 327 337 c 1
EndSplineSet
EndChar

StartChar: Gamma
Encoding: 915 915 96
Width: 662
Flags: W
LayerCount: 2
Fore
SplineSet
578 444 m 1
 578 455 l 1
 572 499 563 570 527 601 c 0
 482 640 411 634 355 634 c 0
 307 635 281 636 266 634 c 0
 255 633 253 630 248 624 c 1
 247 346 l 2
 246 34 247 -35 252 -42 c 0
 258 -50 279 -54 351 -54 c 2
 381 -54 l 1
 381 -100 l 1
 360 -100 l 2
 343 -97 72 -96 49 -100 c 1
 31 -100 l 1
 31 -54 l 1
 57 -54 l 2
 128 -54 132 -51 139 -32 c 1
 139 612 l 1
 134 625 128 629 119 631 c 0
 102 636 75 634 57 634 c 2
 31 634 l 1
 31 680 l 1
 49 680 l 2
 55 679 78 679 137 679 c 0
 195 679 286 680 429 680 c 2
 590 680 l 1
 590 670 l 1
 594 659 600 610 606 562 c 0
 610 530 613 498 618 466 c 0
 619 461 619 458 620 457 c 2
 620 444 l 1
 578 444 l 1
EndSplineSet
EndChar

StartChar: Epsilon
Encoding: 917 917 97
Width: 765
Flags: W
LayerCount: 2
Fore
SplineSet
673 490 m 0
 653 490 654 498 650 512 c 0
 619 610 550 660 439 660 c 0
 381 660 194 632 180 376 c 1
 407 386 l 2
 504 390 513 403 513 490 c 1
 554 490 l 1
 554 216 l 1
 513 216 l 1
 513 303 504 317 407 321 c 2
 179 331 l 1
 183 53 380 23 440 23 c 0
 551 23 609 69 661 139 c 0
 668 149 674 157 689 149 c 0
 707 140 700 127 696 119 c 0
 646 33 569 -22 427 -22 c 0
 229 -22 56 135 56 342 c 0
 56 546 228 705 427 705 c 0
 528 705 623 700 697 588 c 1
 697 521 l 2
 697 500 697 490 673 490 c 0
EndSplineSet
EndChar

StartChar: Zeta
Encoding: 918 918 98
Width: 648
Flags: W
LayerCount: 2
Fore
SplineSet
579 0 m 1
 91 0 l 2
 64 0 56 1 56 24 c 0
 56 34 57 35 65 47 c 2
 464 638 l 1
 313 638 l 2
 148 638 118 564 110 449 c 1
 70 449 l 1
 82 683 l 1
 556 683 l 2
 581 683 590 682 590 660 c 0
 590 650 589 648 583 638 c 2
 184 48 l 1
 342 48 l 2
 529 48 548 133 557 276 c 1
 597 276 l 1
 579 0 l 1
EndSplineSet
EndChar

StartChar: Eta
Encoding: 919 919 99
Width: 795
Flags: W
LayerCount: 2
Fore
SplineSet
600 3 m 0
 560 3 482 3 439 0 c 1
 439 45 l 1
 471 45 l 2
 543 45 546 52 546 83 c 2
 546 333 l 1
 248 333 l 1
 248 83 l 2
 248 52 251 45 323 45 c 2
 355 45 l 1
 355 0 l 1
 311 3 233 3 193 3 c 0
 154 3 76 3 32 0 c 1
 32 45 l 1
 65 45 l 2
 139 45 140 53 140 83 c 2
 140 600 l 2
 140 630 139 638 65 638 c 2
 32 638 l 1
 32 683 l 1
 77 680 155 680 194 680 c 0
 234 680 311 680 355 683 c 1
 355 638 l 1
 323 638 l 2
 251 638 248 631 248 600 c 2
 248 378 l 1
 546 378 l 1
 546 600 l 2
 546 631 543 638 471 638 c 2
 439 638 l 1
 439 683 l 1
 482 680 561 680 601 680 c 0
 640 680 717 680 762 683 c 1
 762 638 l 1
 729 638 l 2
 654 638 654 630 654 600 c 2
 654 83 l 2
 654 53 654 45 729 45 c 2
 762 45 l 1
 762 0 l 1
 717 3 639 3 600 3 c 0
EndSplineSet
EndChar

StartChar: Theta
Encoding: 920 920 100
Width: 825
Flags: W
LayerCount: 2
Fore
SplineSet
411 -22 m 0
 223 -22 55 131 55 339 c 0
 55 547 220 705 411 705 c 0
 601 705 767 548 767 339 c 0
 767 130 600 -22 411 -22 c 0
559 602 m 0
 497 664 429 666 411 666 c 0
 321 666 252 605 218 541 c 0
 190 489 183 439 179 393 c 1
 643 393 l 1
 639 467 618 544 559 602 c 0
179 317 m 1
 184 242 200 151 266 84 c 0
 294 56 343 19 411 19 c 0
 514 19 619 105 640 281 c 0
 642 294 642 305 643 317 c 1
 179 317 l 1
EndSplineSet
EndChar

StartChar: Iota
Encoding: 921 921 101
Width: 383
Flags: W
LayerCount: 2
Fore
SplineSet
337 0 m 2
 319 3 65 3 45 0 c 2
 26 0 l 1
 26 46 l 1
 52 46 l 2
 120 46 129 49 137 65 c 1
 137 619 l 1
 132 626 129 630 121 633 c 0
 110 636 91 637 52 637 c 2
 26 637 l 1
 26 683 l 1
 45 683 l 2
 63 680 317 680 337 683 c 2
 355 683 l 1
 355 637 l 1
 330 637 l 2
 258 637 252 632 246 619 c 1
 246 65 l 1
 251 51 256 46 330 46 c 2
 355 46 l 1
 355 0 l 1
 337 0 l 2
EndSplineSet
EndChar

StartChar: Kappa
Encoding: 922 922 102
Width: 825
Flags: W
LayerCount: 2
Fore
SplineSet
767 0 m 1
 752 4 530 3 515 0 c 2
 497 0 l 1
 497 46 l 1
 518 46 l 2
 540 46 558 52 558 66 c 0
 558 70 557 76 553 83 c 0
 548 91 374 337 361 354 c 1
 359 351 354 347 348 341 c 0
 314 311 282 281 248 251 c 1
 248 161 l 1
 248 78 l 2
 248 68 249 65 249 63 c 0
 254 52 264 46 330 46 c 2
 356 46 l 1
 356 0 l 1
 337 0 l 2
 319 3 70 3 49 0 c 2
 31 0 l 1
 31 46 l 1
 57 46 l 2
 129 46 132 49 139 68 c 1
 139 615 l 1
 134 628 129 632 119 635 c 0
 102 639 75 637 57 637 c 2
 31 637 l 1
 31 683 l 1
 49 683 l 2
 68 680 317 680 337 683 c 2
 356 683 l 1
 356 637 l 1
 330 637 l 2
 324 637 304 639 285 637 c 0
 266 635 250 629 248 615 c 2
 248 596 l 2
 248 575 247 534 248 453 c 2
 249 306 l 1
 342 390 435 473 527 556 c 0
 556 582 571 595 572 596 c 0
 576 602 578 608 578 614 c 0
 578 630 551 637 543 637 c 2
 531 637 l 1
 531 683 l 1
 548 683 l 1
 570 679 746 680 754 683 c 2
 768 683 l 1
 768 637 l 1
 756 637 l 2
 700 637 653 608 631 591 c 0
 625 587 601 566 576 544 c 0
 528 501 480 459 433 416 c 1
 457 383 669 91 676 83 c 0
 696 59 708 46 757 46 c 2
 783 46 l 1
 783 0 l 1
 767 0 l 1
EndSplineSet
EndChar

StartChar: Lambda
Encoding: 923 923 103
Width: 736
Flags: W
LayerCount: 2
Fore
SplineSet
334 546 m 1
 331 534 326 515 318 492 c 0
 273 359 227 226 181 94 c 1
 181 86 l 2
 181 66 206 46 244 46 c 2
 262 46 l 1
 262 0 l 1
 245 0 l 1
 222 4 52 2 45 0 c 2
 31 0 l 1
 31 46 l 1
 50 46 l 2
 94 46 121 67 134 104 c 0
 135 105 138 112 143 129 c 2
 166 195 l 2
 184 250 211 324 239 405 c 0
 267 487 281 534 291 559 c 2
 300 584 l 2
 300 586 300 587 301 588 c 2
 301 589 l 1
 277 632 246 635 178 635 c 1
 178 683 l 1
 247 680 317 680 397 684 c 1
 406 676 578 167 601 103 c 0
 608 84 610 74 612 70 c 2
 613 67 l 2
 614 67 614 67 614 66 c 0
 626 43 647 46 673 46 c 2
 704 46 l 1
 704 0 l 1
 687 0 l 2
 677 3 452 4 429 0 c 1
 408 0 l 1
 408 46 l 1
 428 46 l 2
 455 46 497 45 497 67 c 0
 495 76 455 195 414 315 c 0
 387 392 360 469 334 546 c 1
EndSplineSet
EndChar

StartChar: Mu
Encoding: 924 924 104
Width: 972
Flags: W
LayerCount: 2
Fore
SplineSet
777 3 m 0
 737 3 666 3 619 0 c 1
 619 45 l 1
 652 45 l 2
 727 45 727 53 727 83 c 2
 727 612 l 1
 482 23 l 2
 477 11 472 0 456 0 c 0
 440 0 433 14 428 26 c 2
 189 604 l 1
 189 110 l 2
 189 85 189 45 297 45 c 1
 297 0 l 1
 166 3 l 1
 36 0 l 1
 36 45 l 1
 144 45 144 85 144 110 c 2
 144 600 l 2
 144 630 144 638 69 638 c 2
 36 638 l 1
 36 683 l 1
 220 683 l 2
 246 683 254 683 265 657 c 2
 485 125 l 1
 708 660 l 2
 714 674 717 682 734 683 c 0
 738 683 743 683 750 683 c 2
 935 683 l 1
 935 638 l 1
 902 638 l 2
 827 638 827 630 827 600 c 2
 827 83 l 2
 827 53 827 45 902 45 c 2
 935 45 l 1
 935 0 l 1
 888 3 818 3 777 3 c 0
EndSplineSet
EndChar

StartChar: Nu
Encoding: 925 925 105
Width: 795
Flags: W
LayerCount: 2
Fore
SplineSet
183 600 m 1
 183 110 l 2
 183 85 185 45 291 45 c 1
 291 0 l 1
 161 3 l 1
 32 0 l 1
 32 45 l 1
 138 45 140 85 140 110 c 2
 140 622 l 2
 140 634 139 635 122 636 c 0
 106 638 85 638 70 638 c 2
 32 638 l 1
 32 683 l 1
 217 683 l 2
 239 683 243 681 254 667 c 2
 611 177 l 1
 611 573 l 2
 611 598 609 638 502 638 c 1
 502 683 l 1
 632 680 l 1
 762 683 l 1
 762 638 l 1
 656 638 654 598 654 573 c 2
 654 33 l 2
 654 10 653 0 632 0 c 0
 620 0 617 3 608 16 c 2
 183 600 l 1
EndSplineSet
EndChar

StartChar: Xi
Encoding: 926 926 106
Width: 675
Flags: W
LayerCount: 2
Fore
SplineSet
253 392 m 1
 284 398 313 406 346 406 c 0
 393 406 501 388 501 318 c 0
 501 210 297 125 205 86 c 1
 205 82 l 1
 310 82 624 79 624 74 c 2
 633 -97 l 1
 590 -97 l 1
 590 -79 l 2
 590 -36 587 -18 582 -10 c 0
 578 -7 573 -4 557 -3 c 0
 541 -1 517 -2 479 -2 c 2
 353 -2 l 1
 50 -2 l 1
 50 66 l 1
 116 93 201 125 270 161 c 0
 340 197 388 234 388 267 c 0
 388 304 330 329 264 329 c 0
 204 329 166 312 112 289 c 1
 101 306 l 1
 101 344 l 1
 454 594 l 1
 353 594 l 2
 138 594 108 592 100 588 c 0
 90 585 89 542 89 518 c 0
 89 512 84 509 68 509 c 2
 46 509 l 1
 55 677 l 1
 609 677 l 1
 609 637 l 1
 253 392 l 1
EndSplineSet
Substitution2: "'salt' Stylistic Alternatives lookup 0-1" Xi.alt
EndChar

StartChar: Omicron
Encoding: 927 927 107
Width: 825
Flags: W
LayerCount: 2
Fore
SplineSet
411 -22 m 0
 221 -22 56 134 56 339 c 0
 56 545 220 705 411 705 c 0
 606 705 767 543 767 339 c 0
 767 137 606 -22 411 -22 c 0
411 666 m 0
 328 666 179 603 179 353 c 0
 179 99 317 18 412 18 c 0
 503 18 644 95 644 353 c 0
 644 600 498 666 411 666 c 0
EndSplineSet
EndChar

StartChar: Pi
Encoding: 928 928 108
Width: 795
Flags: W
LayerCount: 2
Fore
SplineSet
745 0 m 2
 726 3 477 3 457 0 c 2
 439 0 l 1
 439 46 l 1
 464 46 l 2
 536 46 540 49 546 68 c 1
 546 634 l 1
 248 634 l 1
 248 68 l 1
 256 46 266 46 330 46 c 2
 355 46 l 1
 355 0 l 1
 337 0 l 2
 319 3 70 3 49 0 c 2
 31 0 l 1
 31 46 l 1
 57 46 l 2
 129 46 132 49 139 68 c 1
 139 612 l 1
 134 625 129 629 119 632 c 0
 102 636 75 634 57 634 c 2
 31 634 l 1
 31 680 l 1
 49 680 l 2
 54 679 180 676 214 678 c 0
 231 679 268 680 397 680 c 0
 512 680 551 679 576 678 c 0
 600 677 611 677 668 678 c 0
 690 678 713 679 735 679 c 0
 740 679 743 680 745 680 c 2
 763 680 l 1
 763 634 l 1
 737 634 l 2
 665 634 663 630 655 612 c 1
 655 68 l 1
 664 46 673 46 737 46 c 2
 763 46 l 1
 763 0 l 1
 745 0 l 2
EndSplineSet
EndChar

StartChar: Rho
Encoding: 929 929 109
Width: 722
Flags: W
LayerCount: 2
Fore
SplineSet
479 314 m 0
 465 312 458 311 442 310 c 0
 426 310 400 309 337 308 c 1
 337 349 l 1
 360 349 388 348 418 352 c 0
 448 356 479 364 504 384 c 0
 534 409 541 450 541 493 c 0
 541 583 509 637 402 637 c 2
 341 637 l 2
 303 637 270 637 267 636 c 0
 252 636 250 630 250 628 c 2
 249 83 l 2
 249 53 250 45 324 45 c 2
 357 45 l 1
 357 0 l 1
 313 3 234 3 195 3 c 0
 156 3 79 3 34 0 c 1
 34 45 l 1
 67 45 l 2
 142 45 142 53 142 83 c 2
 141 615 l 1
 136 628 130 632 121 635 c 0
 104 639 77 637 59 637 c 2
 33 637 l 1
 33 683 l 1
 51 683 l 2
 69 680 116 680 175 681 c 0
 233 682 302 683 360 683 c 0
 412 683 467 684 516 666 c 0
 553 653 665 604 665 493 c 0
 665 419 598 338 479 314 c 0
EndSplineSet
EndChar

StartChar: Sigma
Encoding: 931 931 110
Width: 765
Flags: W
LayerCount: 2
Fore
SplineSet
673 490 m 0
 653 490 654 498 650 512 c 0
 619 610 550 660 439 660 c 0
 377 660 179 629 179 341 c 0
 179 54 378 23 440 23 c 0
 551 23 609 69 661 139 c 0
 668 149 674 157 689 149 c 0
 707 140 700 127 696 119 c 0
 646 33 569 -22 427 -22 c 0
 229 -22 56 135 56 342 c 0
 56 546 228 705 427 705 c 0
 528 705 623 700 697 588 c 1
 697 521 l 2
 697 500 697 490 673 490 c 0
EndSplineSet
EndChar

StartChar: Tau
Encoding: 932 932 111
Width: 765
Flags: W
LayerCount: 2
Fore
SplineSet
689 443 m 1
 674 605 660 632 508 632 c 0
 497 632 486 633 474 632 c 0
 467 632 456 633 449 631 c 0
 439 629 437 623 437 613 c 0
 436 609 436 606 436 601 c 2
 436 84 l 2
 436 54 437 45 538 45 c 2
 588 45 l 1
 588 0 l 1
 537 3 429 3 382 3 c 0
 334 3 227 3 176 0 c 1
 176 45 l 1
 226 45 l 2
 327 45 329 54 329 84 c 2
 329 601 l 2
 329 623 328 628 312 631 c 0
 303 632 275 632 257 632 c 0
 104 632 90 605 75 443 c 1
 35 443 l 1
 55 677 l 1
 709 677 l 1
 730 443 l 1
 689 443 l 1
EndSplineSet
EndChar

StartChar: Upsilon
Encoding: 933 933 112
Width: 825
Flags: W
LayerCount: 2
Fore
SplineSet
412 492 m 1
 430 586 488 702 617 705 c 0
 734 708 768 598 768 541 c 0
 768 507 755 452 682 452 c 0
 638 452 628 480 628 500 c 0
 628 527 646 544 680 547 c 0
 703 549 714 555 714 569 c 0
 714 605 602 646 536 579 c 0
 504 548 482 495 473 427 c 0
 470 409 470 400 469 376 c 0
 467 351 467 309 466 226 c 0
 466 139 467 98 467 78 c 0
 468 75 468 64 469 61 c 2
 472 58 l 2
 477 50 497 46 570 46 c 2
 601 46 l 1
 601 0 l 1
 582 0 l 2
 562 3 264 3 243 0 c 2
 224 0 l 1
 224 46 l 1
 254 46 l 2
 327 46 347 51 353 58 c 0
 354 59 355 60 355 62 c 0
 356 64 357 67 357 76 c 0
 358 95 358 134 358 215 c 0
 358 300 358 370 357 379 c 0
 346 530 292 615 199 615 c 0
 179 615 109 604 103 547 c 0
 101 531 97 527 80 526 c 0
 65 525 55 528 55 546 c 0
 55 605 94 694 179 704 c 0
 295 718 370 634 412 492 c 1
EndSplineSet
EndChar

StartChar: Phi
Encoding: 934 934 113
Width: 765
Flags: W
LayerCount: 2
Fore
SplineSet
437 133 m 1
 430 133 l 1
 430 4 l 2
 430 -33 430 -34 436 -42 c 0
 441 -50 461 -54 534 -54 c 2
 565 -54 l 1
 565 -100 l 1
 546 -100 l 2
 526 -97 233 -97 213 -100 c 2
 194 -100 l 1
 194 -54 l 1
 225 -54 l 2
 284 -54 309 -52 319 -45 c 0
 324 -42 327 -37 328 -29 c 0
 329 -21 329 -9 329 4 c 2
 329 133 l 1
 274 142 241 147 189 171 c 0
 104 212 55 275 55 342 c 0
 55 467 203 535 329 550 c 1
 329 679 l 2
 329 716 329 717 323 725 c 0
 318 733 298 737 225 737 c 2
 194 737 l 1
 194 783 l 1
 213 783 l 2
 233 780 526 780 546 783 c 2
 565 783 l 1
 565 737 l 1
 534 737 l 2
 475 737 450 735 440 728 c 0
 435 725 433 721 431 712 c 0
 430 704 430 692 430 679 c 2
 430 550 l 1
 539 541 709 479 709 341 c 0
 709 215 553 146 437 133 c 1
548 461 m 0
 512 496 454 511 430 513 c 1
 430 170 l 1
 434 170 439 171 445 172 c 0
 526 188 577 233 586 307 c 0
 588 322 587 335 587 342 c 0
 587 414 564 446 548 461 c 0
332 169 m 1
 332 175 l 2
 330 230 329 286 329 342 c 0
 329 425 330 468 330 491 c 0
 331 503 331 509 331 512 c 2
 331 512 331 513 331 513 c 1
 310 511 251 494 216 461 c 0
 200 445 176 412 176 342 c 0
 176 269 200 238 216 222 c 0
 241 197 277 181 320 172 c 0
 327 171 334 170 335 170 c 1
 335 168 332 169 332 169 c 1
EndSplineSet
EndChar

StartChar: Chi
Encoding: 935 935 114
Width: 795
Flags: W
LayerCount: 2
Fore
SplineSet
629 3 m 2
 589 4 513 3 469 0 c 1
 469 43 l 1
 522 46 536 62 536 66 c 0
 536 67 534 73 533 73 c 2
 373 299 l 1
 231 102 l 2
 223 92 222 89 222 82 c 0
 222 69 236 45 287 44 c 1
 287 0 l 1
 198 6 111 2 22 0 c 1
 22 45 l 1
 82 45 136 54 169 98 c 2
 172 102 l 2
 173 104 174 105 176 106 c 2
 345 339 l 1
 154 608 l 2
 137 632 121 638 64 638 c 2
 36 638 l 1
 36 683 l 1
 179 680 l 2
 219 679 296 680 340 683 c 1
 340 640 l 1
 287 637 271 621 271 617 c 0
 271 614 277 608 278 605 c 2
 407 425 l 1
 426 451 489 536 525 588 c 0
 528 593 529 595 529 601 c 0
 529 618 510 637 463 640 c 1
 463 683 l 1
 555 677 638 681 728 683 c 1
 728 638 l 1
 631 637 597 608 575 578 c 2
 434 385 l 1
 653 76 l 2
 673 49 691 45 745 45 c 2
 773 45 l 1
 773 0 l 1
 629 3 l 2
EndSplineSet
EndChar

StartChar: Psi
Encoding: 936 936 115
Width: 825
Flags: W
LayerCount: 2
Fore
SplineSet
748 520 m 0
 710 520 705 471 699 445 c 0
 698 443 698 441 697 439 c 2
 696 406 l 2
 696 389 694 370 694 363 c 0
 677 233 596 155 459 133 c 1
 460 135 460 4 460 4 c 2
 460 -33 460 -34 466 -42 c 0
 471 -50 491 -54 564 -54 c 2
 595 -54 l 1
 595 -100 l 1
 575 -100 l 2
 555 -97 263 -97 243 -100 c 2
 224 -100 l 1
 224 -54 l 1
 254 -54 l 2
 313 -54 338 -52 349 -45 c 0
 354 -42 356 -37 357 -29 c 0
 358 -21 358 -9 358 4 c 2
 358 134 l 1
 197 167 127 270 127 407 c 0
 127 463 115 520 75 520 c 0
 64 520 55 529 55 539 c 0
 55 557 72 557 86 557 c 2
 112 557 l 2
 150 557 154 556 162 553 c 0
 199 542 219 507 228 452 c 0
 228 436 231 365 235 340 c 0
 247 267 278 203 358 174 c 1
 358 489 l 2
 358 613 358 672 357 698 c 0
 357 702 357 720 356 722 c 0
 348 732 326 736 302 737 c 0
 279 739 258 737 254 737 c 2
 224 737 l 1
 224 783 l 1
 243 783 l 2
 263 780 555 780 575 783 c 2
 595 783 l 1
 595 737 l 1
 564 737 l 2
 561 737 540 739 517 737 c 0
 493 736 470 731 463 722 c 0
 461 720 461 702 461 698 c 0
 460 672 460 613 460 489 c 2
 460 174 l 1
 485 182 502 189 523 205 c 0
 546 224 565 257 577 292 c 0
 588 325 592 353 594 408 c 0
 594 427 596 445 596 452 c 0
 602 492 620 551 675 556 c 0
 681 556 692 557 712 557 c 2
 757 557 l 1
 763 551 768 548 768 539 c 0
 768 523 755 520 748 520 c 0
EndSplineSet
EndChar

StartChar: Iotadieresis
Encoding: 938 938 116
Width: 383
Flags: W
LayerCount: 2
Fore
SplineSet
282 724 m 0
 249 724 225 750 225 777 c 0
 225 803 246 831 283 831 c 0
 315 831 339 805 339 777 c 0
 339 752 318 724 282 724 c 0
98 724 m 0
 66 724 41 750 41 777 c 0
 41 803 63 831 99 831 c 0
 131 831 156 805 156 777 c 0
 156 752 135 724 98 724 c 0
337 0 m 2
 319 3 65 3 45 0 c 2
 26 0 l 1
 26 46 l 1
 52 46 l 2
 120 46 129 49 137 65 c 1
 137 621 l 1
 132 627 129 632 121 636 c 0
 110 638 91 640 52 640 c 2
 26 640 l 1
 26 685 l 1
 45 685 l 2
 63 682 317 682 337 685 c 2
 355 685 l 1
 355 640 l 1
 330 640 l 2
 258 640 252 635 246 621 c 1
 246 65 l 1
 251 51 256 46 330 46 c 2
 355 46 l 1
 355 0 l 1
 337 0 l 2
EndSplineSet
EndChar

StartChar: Upsilondieresis
Encoding: 939 939 117
Width: 825
Flags: W
LayerCount: 2
Fore
SplineSet
506 724 m 0
 473 724 448 750 448 777 c 0
 448 803 470 831 507 831 c 0
 539 831 564 805 564 777 c 0
 564 752 543 724 506 724 c 0
319 724 m 0
 286 724 262 750 262 777 c 0
 262 803 283 831 320 831 c 0
 353 831 377 805 377 777 c 0
 377 752 356 724 319 724 c 0
412 493 m 1
 430 588 488 704 617 707 c 0
 734 710 768 600 768 543 c 0
 768 509 755 454 682 454 c 0
 638 454 628 482 628 501 c 0
 628 528 646 547 680 549 c 0
 703 551 714 557 714 570 c 0
 714 607 602 648 536 581 c 0
 504 550 482 497 473 428 c 0
 470 411 470 402 469 377 c 0
 467 352 467 311 466 227 c 0
 466 139 467 98 467 79 c 0
 468 75 468 64 469 61 c 2
 472 58 l 2
 477 50 497 46 570 46 c 2
 601 46 l 1
 601 0 l 1
 582 0 l 2
 562 3 264 3 243 0 c 2
 224 0 l 1
 224 46 l 1
 254 46 l 2
 327 46 347 51 353 58 c 0
 354 59 355 60 355 62 c 0
 356 64 357 67 357 78 c 0
 358 95 358 134 358 215 c 0
 358 302 358 370 357 380 c 0
 346 532 292 617 199 617 c 0
 179 617 109 606 103 549 c 0
 101 533 97 528 80 527 c 0
 65 527 55 530 55 548 c 0
 55 607 94 696 179 706 c 0
 294 720 370 636 412 493 c 1
EndSplineSet
EndChar

StartChar: alphatonos
Encoding: 940 940 118
Width: 558
Flags: W
LayerCount: 2
Fore
SplineSet
385 0 m 1
 342 85 l 1
 340 85 l 1
 233 63 148 49 57 -13 c 1
 43 -13 25 -8 20 13 c 1
 90 120 181 185 200 318 c 0
 207 365 156 389 77 389 c 1
 77 432 l 1
 200 430 l 2
 229 430 239 422 254 396 c 2
 440 80 l 2
 461 44 503 43 546 43 c 1
 546 0 l 1
 385 0 l 1
249 258 m 1
 248 258 l 1
 210 203 166 129 153 104 c 1
 210 124 284 130 316 132 c 1
 298 168 263 230 249 258 c 1
EndSplineSet
EndChar

StartChar: epsilontonos
Encoding: 941 941 119
Width: 484
Flags: W
LayerCount: 2
Fore
SplineSet
449 81 m 0
 448 80 448 78 447 77 c 0
 416 21 365 -14 273 -14 c 0
 147 -14 35 87 35 219 c 0
 35 350 146 451 273 451 c 0
 337 451 398 448 447 375 c 1
 447 332 l 2
 447 316 446 307 429 307 c 0
 415 307 411 317 408 326 c 0
 388 386 343 414 273 414 c 0
 247 414 134 399 134 218 c 0
 134 37 253 24 281 24 c 0
 351 24 381 48 415 92 c 0
 426 107 450 101 450 88 c 0
 450 85 450 83 449 81 c 0
315 136 m 1
 315 191 315 196 259 200 c 2
 104 211 l 1
 104 242 l 1
 259 252 l 2
 289 253 302 256 308 263 c 0
 311 267 313 272 314 280 c 0
 315 288 315 299 315 315 c 1
 357 315 l 1
 357 136 l 1
 315 136 l 1
EndSplineSet
EndChar

StartChar: etatonos
Encoding: 942 942 120
Width: 588
Flags: W
LayerCount: 2
Fore
SplineSet
435 3 m 2
 430 3 l 2
 416 3 382 3 314 0 c 1
 314 36 l 1
 326 36 l 2
 387 36 394 41 394 76 c 0
 394 82 393 87 393 93 c 2
 393 219 l 1
 193 219 l 1
 193 76 l 2
 193 40 200 36 260 36 c 2
 272 36 l 1
 272 0 l 1
 225 2 185 3 144 3 c 2
 140 3 l 2
 126 3 91 3 23 0 c 1
 23 36 l 1
 39 36 l 2
 99 36 105 42 105 74 c 2
 105 357 l 2
 105 389 98 395 38 395 c 2
 23 395 l 1
 23 430 l 1
 69 428 108 428 146 428 c 0
 187 428 226 428 272 430 c 1
 272 395 l 1
 262 395 l 2
 202 395 193 392 193 357 c 2
 193 253 l 1
 393 253 l 1
 393 357 l 2
 393 392 385 395 325 395 c 2
 314 395 l 1
 314 430 l 1
 359 428 398 428 436 428 c 0
 475 428 516 428 563 430 c 1
 563 395 l 1
 548 395 l 2
 487 395 481 388 481 357 c 2
 481 74 l 2
 481 42 487 36 547 36 c 2
 563 36 l 1
 563 0 l 1
 515 2 475 3 435 3 c 2
EndSplineSet
EndChar

StartChar: iotatonos
Encoding: 943 943 121
Width: 303
Flags: W
LayerCount: 2
Fore
SplineSet
152 3 m 0
 107 3 73 1 32 0 c 1
 32 36 l 1
 48 36 l 2
 106 36 111 42 111 74 c 2
 111 359 l 2
 111 393 104 397 45 397 c 2
 32 397 l 1
 32 432 l 1
 76 430 112 430 151 430 c 0
 191 430 230 430 278 432 c 1
 278 397 l 1
 263 397 l 2
 199 397 198 389 198 341 c 2
 198 93 l 2
 198 45 199 36 263 36 c 2
 278 36 l 1
 278 0 l 1
 230 2 192 3 152 3 c 0
EndSplineSet
EndChar

StartChar: upsilondieresistonos
Encoding: 944 944 122
Width: 568
Flags: W
LayerCount: 2
Fore
SplineSet
373 506 m 0
 341 506 315 532 315 559 c 0
 315 585 337 613 374 613 c 0
 406 613 431 587 431 559 c 0
 431 534 410 506 373 506 c 0
187 506 m 0
 155 506 129 532 129 559 c 0
 129 585 151 613 188 613 c 0
 220 613 246 587 246 559 c 0
 246 534 223 506 187 506 c 0
278 277 m 1
 296 345 336 429 430 431 c 0
 518 434 544 349 544 307 c 0
 544 282 533 240 477 240 c 0
 444 240 435 260 435 276 c 0
 435 299 451 312 477 313 c 0
 493 314 500 319 500 328 c 0
 500 352 421 384 371 335 c 0
 348 312 331 274 324 223 c 0
 321 197 321 194 321 70 c 2
 321 -112 l 2
 321 -145 324 -150 388 -150 c 2
 403 -150 l 1
 403 -195 l 1
 356 -193 315 -192 276 -192 c 0
 252 -192 220 -192 156 -195 c 1
 156 -150 l 1
 167 -150 l 2
 236 -150 237 -145 237 -112 c 2
 237 70 l 2
 237 134 237 181 236 188 c 0
 228 300 189 361 122 361 c 0
 107 361 60 353 54 312 c 0
 53 301 48 294 34 293 c 0
 20 293 14 299 14 311 c 0
 14 355 43 423 107 430 c 0
 192 441 247 379 278 277 c 1
EndSplineSet
Substitution2: "'salt' Stylistic Alternatives lookup 0-1" upsilondieresistonos.alt
EndChar

StartChar: alpha
Encoding: 945 945 123
Width: 558
Flags: W
LayerCount: 2
Fore
SplineSet
385 0 m 1
 342 85 l 1
 340 85 l 1
 233 63 148 49 57 -13 c 1
 43 -13 25 -8 20 13 c 1
 90 120 181 185 200 318 c 0
 207 365 156 389 77 389 c 1
 77 432 l 1
 200 430 l 2
 229 430 239 422 254 396 c 2
 440 80 l 2
 461 44 503 43 546 43 c 1
 546 0 l 1
 385 0 l 1
249 258 m 1
 248 258 l 1
 210 203 166 129 153 104 c 1
 210 124 284 130 316 132 c 1
 298 168 263 230 249 258 c 1
EndSplineSet
EndChar

StartChar: beta
Encoding: 946 946 124
Width: 480
Flags: W
LayerCount: 2
Fore
SplineSet
222 -14 m 0
 118 -14 72 20 72 55 c 2
 72 372 l 2
 72 391 71 406 26 406 c 2
 5 406 l 1
 4 449 l 1
 57 447 109 448 159 450 c 1
 159 387 l 1
 197 425 237 444 299 444 c 0
 337 444 424 417 424 357 c 0
 424 313 384 259 310 231 c 1
 384 219 452 172 452 120 c 0
 452 52 375 -14 222 -14 c 0
208 213 m 1
 162 237 l 1
 294 257 328 320 328 357 c 0
 328 385 301 405 267 405 c 0
 240 405 197 386 159 337 c 1
 159 50 l 2
 159 42 168 30 225 30 c 0
 269 30 357 34 357 121 c 0
 357 181 271 213 208 213 c 1
EndSplineSet
EndChar

StartChar: gamma
Encoding: 947 947 125
Width: 471
Flags: W
LayerCount: 2
Fore
SplineSet
406 261 m 1
 398 371 384 395 279 395 c 2
 228 395 l 2
 193 395 192 391 192 346 c 2
 192 76 l 2
 192 42 198 36 275 36 c 2
 293 36 l 1
 293 0 l 1
 239 2 195 3 149 3 c 0
 138 3 102 3 23 0 c 1
 23 36 l 1
 39 36 l 2
 99 36 104 42 104 74 c 2
 104 357 l 2
 104 389 98 395 38 395 c 2
 23 395 l 1
 23 430 l 1
 434 430 l 1
 446 261 l 1
 406 261 l 1
EndSplineSet
EndChar

StartChar: delta
Encoding: 948 948 126
Width: 611
Flags: W
LayerCount: 2
Fore
SplineSet
7 0 m 1
 7 44 l 1
 35 44 59 46 75 66 c 0
 135 143 153 169 168 194 c 0
 183 220 197 246 250 322 c 1
 188 443 176 453 103 453 c 1
 103 490 l 1
 213 488 l 2
 242 487 251 480 267 453 c 2
 485 81 l 2
 507 45 549 43 591 43 c 1
 591 0 l 1
 7 0 l 1
283 270 m 1
 219 185 156 82 156 63 c 0
 156 49 230 51 280 51 c 0
 325 51 372 59 396 66 c 1
 376 109 315 224 283 270 c 1
EndSplineSet
EndChar

StartChar: epsilon
Encoding: 949 949 127
Width: 484
Flags: W
LayerCount: 2
Fore
SplineSet
449 81 m 0
 448 80 448 78 447 77 c 0
 416 21 365 -14 273 -14 c 0
 147 -14 35 87 35 219 c 0
 35 350 146 451 273 451 c 0
 337 451 398 448 447 375 c 1
 447 332 l 2
 447 316 446 307 429 307 c 0
 415 307 411 317 408 326 c 0
 388 386 343 414 273 414 c 0
 247 414 134 399 134 218 c 0
 134 37 253 24 281 24 c 0
 351 24 381 48 415 92 c 0
 426 107 450 101 450 88 c 0
 450 85 450 83 449 81 c 0
315 136 m 1
 315 191 315 196 259 200 c 2
 104 211 l 1
 104 242 l 1
 259 252 l 2
 289 253 302 256 308 263 c 0
 311 267 313 272 314 280 c 0
 315 288 315 299 315 315 c 1
 357 315 l 1
 357 136 l 1
 315 136 l 1
EndSplineSet
EndChar

StartChar: zeta
Encoding: 950 950 128
Width: 444
Flags: W
LayerCount: 2
Fore
SplineSet
323 372 m 1
 155 372 l 1
 119 372 l 2
 88 372 69 355 64 279 c 1
 24 279 l 1
 32 430 l 1
 413 430 l 1
 413 367 l 1
 329 332 183 251 183 186 c 0
 183 147 241 139 280 137 c 0
 312 135 361 126 361 79 c 0
 361 13 293 -39 244 -64 c 1
 221 -29 l 1
 256 -12 288 8 288 32 c 0
 288 57 252 62 232 65 c 0
 220 67 207 69 194 71 c 0
 146 79 89 91 89 147 c 0
 89 253 258 343 323 372 c 1
EndSplineSet
EndChar

StartChar: eta
Encoding: 951 951 129
Width: 588
Flags: W
LayerCount: 2
Fore
SplineSet
435 3 m 2
 430 3 l 2
 416 3 382 3 314 0 c 1
 314 36 l 1
 326 36 l 2
 387 36 394 41 394 76 c 0
 394 82 393 87 393 93 c 2
 393 219 l 1
 193 219 l 1
 193 76 l 2
 193 40 200 36 260 36 c 2
 272 36 l 1
 272 0 l 1
 225 2 185 3 144 3 c 2
 140 3 l 2
 126 3 91 3 23 0 c 1
 23 36 l 1
 39 36 l 2
 99 36 105 42 105 74 c 2
 105 357 l 2
 105 389 98 395 38 395 c 2
 23 395 l 1
 23 430 l 1
 69 428 108 428 146 428 c 0
 187 428 226 428 272 430 c 1
 272 395 l 1
 262 395 l 2
 202 395 193 392 193 357 c 2
 193 253 l 1
 393 253 l 1
 393 357 l 2
 393 392 385 395 325 395 c 2
 314 395 l 1
 314 430 l 1
 359 428 398 428 436 428 c 0
 475 428 516 428 563 430 c 1
 563 395 l 1
 548 395 l 2
 487 395 481 388 481 357 c 2
 481 74 l 2
 481 42 487 36 547 36 c 2
 563 36 l 1
 563 0 l 1
 515 2 475 3 435 3 c 2
EndSplineSet
EndChar

StartChar: theta
Encoding: 952 952 130
Width: 530
Flags: W
LayerCount: 2
Fore
SplineSet
264 -11 m 0
 139 -11 25 83 25 213 c 0
 25 332 123 447 264 447 c 0
 402 447 502 336 502 213 c 0
 502 82 389 -11 264 -11 c 0
264 411 m 0
 219 411 133 391 127 255 c 1
 401 255 l 1
 394 391 308 411 264 411 c 0
401 211 m 1
 127 211 l 1
 128 153 135 89 188 51 c 0
 210 35 237 27 264 27 c 0
 305 27 339 45 363 73 c 0
 394 109 401 158 401 204 c 2
 401 211 l 1
EndSplineSet
EndChar

StartChar: iota
Encoding: 953 953 131
Width: 303
Flags: W
LayerCount: 2
Fore
SplineSet
152 3 m 0
 107 3 73 1 32 0 c 1
 32 36 l 1
 48 36 l 2
 106 36 111 42 111 74 c 2
 111 359 l 2
 111 393 104 397 45 397 c 2
 32 397 l 1
 32 432 l 1
 76 430 112 430 151 430 c 0
 191 430 230 430 278 432 c 1
 278 397 l 1
 263 397 l 2
 199 397 198 389 198 341 c 2
 198 93 l 2
 198 45 199 36 263 36 c 2
 278 36 l 1
 278 0 l 1
 230 2 192 3 152 3 c 0
EndSplineSet
EndChar

StartChar: kappa
Encoding: 954 954 132
Width: 588
Flags: W
LayerCount: 2
Fore
SplineSet
472 3 m 0
 435 3 399 2 353 0 c 1
 353 35 l 1
 379 37 389 40 389 51 c 0
 389 64 376 81 350 111 c 0
 326 139 293 176 255 225 c 1
 239 214 226 204 217 198 c 0
 211 193 192 180 190 174 c 0
 189 171 190 167 190 165 c 2
 190 98 l 2
 190 86 188 56 196 45 c 0
 204 39 218 36 259 36 c 2
 270 36 l 1
 270 0 l 1
 224 2 184 3 144 3 c 0
 122 3 87 3 23 0 c 1
 23 36 l 1
 39 36 l 2
 99 36 105 42 105 74 c 2
 105 357 l 2
 105 389 99 395 38 395 c 2
 23 395 l 1
 23 430 l 1
 70 428 110 428 151 428 c 0
 173 428 207 427 270 430 c 1
 270 395 l 1
 259 395 l 2
 197 395 190 390 190 354 c 2
 190 226 l 1
 269 285 310 314 333 331 c 0
 348 342 378 365 378 384 c 0
 378 389 373 393 360 397 c 1
 360 430 l 1
 497 428 l 1
 549 430 l 1
 549 396 l 1
 504 393 467 375 429 351 c 0
 393 327 356 298 317 271 c 1
 366 214 401 170 429 137 c 0
 457 103 477 81 492 65 c 0
 521 35 535 36 573 35 c 1
 573 0 l 1
 535 2 503 3 472 3 c 0
EndSplineSet
EndChar

StartChar: lambda
Encoding: 955 955 133
Width: 503
Flags: W
LayerCount: 2
Fore
SplineSet
389 3 m 0
 375 3 360 2 247 0 c 1
 247 43 l 1
 304 43 308 53 308 63 c 0
 308 72 303 84 300 92 c 2
 228 299 l 1
 225 292 223 285 220 278 c 2
 163 109 l 2
 160 101 156 91 156 82 c 0
 156 67 164 47 210 43 c 1
 210 0 l 1
 172 2 142 3 112 3 c 0
 87 3 63 2 31 0 c 1
 31 43 l 1
 102 48 110 84 127 135 c 2
 204 356 l 2
 226 421 184 454 116 454 c 2
 103 454 l 1
 103 490 l 1
 226 490 l 2
 256 490 262 481 271 454 c 2
 398 94 l 2
 408 68 413 56 422 50 c 0
 427 47 433 46 442 45 c 0
 451 44 462 44 480 43 c 1
 480 0 l 1
 444 2 417 3 389 3 c 0
EndSplineSet
EndChar

StartChar: nu
Encoding: 957 957 134
Width: 585
Flags: W
LayerCount: 2
Fore
SplineSet
477 0 m 0
 460 0 443 13 413 46 c 2
 146 347 l 1
 146 107 l 2
 146 56 175 44 228 43 c 1
 228 0 l 1
 188 2 155 3 123 3 c 0
 91 3 61 2 21 0 c 1
 21 43 l 1
 90 45 103 70 103 108 c 2
 103 384 l 1
 81 389 56 389 32 389 c 2
 21 389 l 1
 21 432 l 1
 148 432 l 2
 177 432 188 421 209 396 c 2
 436 140 l 1
 436 320 l 2
 436 354 432 387 354 389 c 1
 354 432 l 1
 394 430 427 429 459 429 c 0
 491 429 521 430 561 432 c 1
 561 389 l 1
 483 387 479 353 479 324 c 2
 479 107 l 2
 479 56 507 44 561 43 c 1
 561 0 l 1
 520 1 510 0 477 0 c 0
EndSplineSet
EndChar

StartChar: xi
Encoding: 958 958 135
Width: 426
Flags: W
LayerCount: 2
Fore
SplineSet
138 61 m 1
 398 61 l 1
 405 -74 l 1
 373 -74 l 1
 373 -60 l 2
 373 -32 370 -10 367 -7 c 0
 364 -3 355 -2 304 -2 c 2
 225 -2 l 1
 31 -2 l 1
 31 49 l 1
 73 72 120 93 159 115 c 0
 200 138 224 158 224 172 c 0
 224 192 192 205 157 205 c 0
 123 205 102 194 72 181 c 1
 63 194 l 1
 63 220 l 1
 280 368 l 1
 225 368 l 2
 88 368 71 368 66 365 c 0
 60 363 57 320 57 304 c 1
 57 304 l 1
 57 297 48 297 42 297 c 2
 26 297 l 1
 34 431 l 1
 389 431 l 1
 389 396 l 1
 187 258 l 1
 202 261 213 263 231 263 c 0
 272 263 333 251 333 205 c 0
 333 168 294 139 253 115 c 0
 215 93 170 75 138 61 c 1
EndSplineSet
Substitution2: "'salt' Stylistic Alternatives lookup 0-1" xi.alt
EndChar

StartChar: omicron
Encoding: 959 959 136
Width: 530
Flags: W
LayerCount: 2
Fore
SplineSet
264 -11 m 0
 138 -11 26 85 26 214 c 0
 26 339 131 448 265 448 c 0
 395 448 502 342 502 214 c 0
 502 87 394 -11 264 -11 c 0
399 287 m 0
 395 310 389 333 376 354 c 0
 350 393 307 413 264 413 c 0
 225 413 177 394 151 352 c 0
 128 313 127 266 127 222 c 0
 127 177 129 127 152 88 c 0
 178 45 223 27 265 27 c 0
 315 27 357 53 379 95 c 0
 400 136 402 186 402 222 c 0
 402 241 402 263 399 287 c 0
EndSplineSet
EndChar

StartChar: pi
Encoding: 960 960 137
Width: 588
Flags: W
LayerCount: 2
Fore
SplineSet
435 3 m 2
 430 3 l 2
 416 3 382 3 314 0 c 1
 314 36 l 1
 326 36 l 2
 394 36 394 45 394 86 c 0
 394 95 393 103 393 111 c 2
 393 358 l 2
 393 394 392 395 349 395 c 2
 225 395 l 2
 197 395 193 390 193 365 c 2
 193 74 l 2
 193 42 198 36 259 36 c 2
 272 36 l 1
 272 0 l 1
 225 2 185 3 144 3 c 2
 140 3 l 2
 126 3 91 3 23 0 c 1
 23 36 l 1
 39 36 l 2
 99 36 105 42 105 74 c 2
 105 357 l 2
 105 389 98 395 38 395 c 2
 23 395 l 1
 23 430 l 1
 563 430 l 1
 563 395 l 1
 548 395 l 2
 487 395 481 388 481 357 c 2
 481 74 l 2
 481 42 487 36 547 36 c 2
 563 36 l 1
 563 0 l 1
 515 2 475 3 435 3 c 2
EndSplineSet
EndChar

StartChar: rho
Encoding: 961 961 138
Width: 530
Flags: W
LayerCount: 2
Fore
SplineSet
284 177 m 1
 284 212 l 1
 369 217 394 268 394 301 c 0
 394 337 367 393 276 393 c 2
 215 393 l 2
 196 393 192 390 192 356 c 2
 192 74 l 2
 192 42 198 36 258 36 c 2
 273 36 l 1
 273 0 l 1
 225 2 185 3 145 3 c 0
 100 3 65 1 23 0 c 1
 23 36 l 1
 39 36 l 2
 99 36 105 42 105 74 c 2
 105 356 l 2
 105 388 99 394 39 394 c 2
 23 394 l 1
 23 430 l 1
 299 430 l 2
 414 430 496 373 496 302 c 0
 496 254 450 177 284 177 c 1
EndSplineSet
EndChar

StartChar: sigma1
Encoding: 962 962 139
Width: 484
Flags: W
LayerCount: 2
Fore
SplineSet
449 81 m 0
 448 80 448 78 447 77 c 0
 416 21 365 -14 273 -14 c 0
 147 -14 35 87 35 219 c 0
 35 350 146 451 273 451 c 0
 337 451 398 448 447 375 c 1
 447 332 l 2
 447 316 446 307 429 307 c 0
 415 307 411 317 408 326 c 0
 388 386 343 414 273 414 c 0
 247 414 134 399 134 218 c 0
 134 37 253 24 281 24 c 0
 351 24 381 48 415 92 c 0
 426 107 450 101 450 88 c 0
 450 85 450 83 449 81 c 0
EndSplineSet
EndChar

StartChar: sigma
Encoding: 963 963 140
Width: 484
Flags: W
LayerCount: 2
Fore
SplineSet
449 81 m 0
 448 80 448 78 447 77 c 0
 416 21 365 -14 273 -14 c 0
 147 -14 35 87 35 219 c 0
 35 350 146 451 273 451 c 0
 337 451 398 448 447 375 c 1
 447 332 l 2
 447 316 446 307 429 307 c 0
 415 307 411 317 408 326 c 0
 388 386 343 414 273 414 c 0
 247 414 134 399 134 218 c 0
 134 37 253 24 281 24 c 0
 351 24 381 48 415 92 c 0
 426 107 450 101 450 88 c 0
 450 85 450 83 449 81 c 0
EndSplineSet
EndChar

StartChar: tau
Encoding: 964 964 141
Width: 530
Flags: W
LayerCount: 2
Fore
SplineSet
466 260 m 1
 458 364 452 395 354 395 c 2
 346 395 l 2
 310 395 307 395 307 346 c 0
 307 335 308 324 308 314 c 2
 308 79 l 2
 308 43 314 36 403 36 c 2
 423 36 l 1
 423 0 l 1
 362 2 311 3 258 3 c 0
 229 3 200 3 107 0 c 1
 107 36 l 1
 126 36 l 2
 212 36 222 43 222 79 c 2
 222 365 l 2
 222 395 215 395 175 395 c 0
 77 395 71 364 63 260 c 1
 23 260 l 1
 35 430 l 1
 494 430 l 1
 506 260 l 1
 466 260 l 1
EndSplineSet
EndChar

StartChar: upsilon
Encoding: 965 965 142
Width: 568
Flags: W
LayerCount: 2
Fore
SplineSet
278 275 m 1
 296 343 336 425 430 428 c 0
 518 430 544 346 544 305 c 0
 544 279 533 237 477 237 c 0
 444 237 435 259 435 274 c 0
 435 296 451 310 477 311 c 0
 493 312 500 317 500 325 c 0
 500 349 421 381 371 332 c 0
 348 309 331 271 324 221 c 0
 321 195 321 192 321 69 c 2
 321 -112 l 2
 321 -145 324 -150 388 -150 c 2
 403 -150 l 1
 403 -195 l 1
 356 -193 315 -192 276 -192 c 0
 252 -192 220 -192 156 -195 c 1
 156 -150 l 1
 167 -150 l 2
 236 -150 237 -145 237 -112 c 2
 237 69 l 2
 237 133 237 179 236 186 c 0
 228 297 189 359 122 359 c 0
 107 359 60 351 54 310 c 0
 52 298 48 292 34 291 c 0
 20 291 14 297 14 309 c 0
 14 353 43 420 107 427 c 0
 192 437 247 375 278 275 c 1
EndSplineSet
Substitution2: "'salt' Stylistic Alternatives lookup 0-1" upsilon.alt
EndChar

StartChar: phi
Encoding: 966 966 143
Width: 485
Flags: W
LayerCount: 2
Fore
SplineSet
269 76 m 1
 284 90 l 1
 284 81 l 2
 284 50 287 43 361 43 c 2
 385 43 l 1
 385 0 l 1
 306 3 267 3 250 3 c 2
 246 3 l 2
 198 3 152 2 96 0 c 1
 96 43 l 1
 119 43 l 2
 192 43 197 52 197 78 c 1
 114 87 25 126 25 215 c 0
 25 275 71 338 197 352 c 1
 197 382 188 387 113 387 c 2
 96 387 l 1
 96 430 l 1
 152 428 198 427 246 427 c 0
 271 427 312 427 385 430 c 1
 385 387 l 1
 368 387 l 2
 292 387 285 381 284 353 c 1
 402 338 460 288 460 216 c 0
 460 139 394 88 269 76 c 1
284 316 m 1
 284 114 l 1
 328 122 372 139 372 214 c 0
 372 274 351 304 284 316 c 1
197 315 m 1
 132 302 113 269 113 216 c 0
 113 158 132 128 197 115 c 1
 197 315 l 1
EndSplineSet
EndChar

StartChar: chi
Encoding: 967 967 144
Width: 560
Flags: W
LayerCount: 2
Fore
SplineSet
442 3 m 0
 404 3 367 2 321 0 c 1
 321 35 l 1
 352 38 359 48 359 57 c 0
 359 64 350 76 330 100 c 0
 313 121 289 146 265 178 c 1
 228 135 206 111 193 95 c 0
 181 78 179 71 179 62 c 0
 179 44 192 39 211 34 c 1
 211 0 l 1
 169 2 137 3 104 3 c 0
 74 3 47 2 10 0 c 1
 10 35 l 1
 67 38 99 56 130 86 c 0
 146 101 162 119 180 141 c 0
 196 161 216 184 239 209 c 1
 114 359 l 2
 91 387 77 395 29 395 c 2
 15 395 l 1
 15 430 l 1
 52 429 81 428 119 428 c 0
 158 428 196 428 243 430 c 1
 243 396 l 1
 213 393 205 381 205 374 c 0
 205 372 205 372 205 370 c 0
 206 367 208 365 214 358 c 0
 224 344 244 318 288 266 c 1
 313 296 332 316 344 331 c 0
 357 347 363 357 363 369 c 0
 363 382 355 389 343 394 c 0
 339 395 334 396 330 397 c 1
 330 430 l 1
 371 428 405 428 439 428 c 0
 467 428 496 428 531 430 c 1
 531 396 l 1
 446 393 413 351 367 296 c 0
 351 277 334 257 314 235 c 1
 450 72 l 2
 473 44 486 36 535 36 c 2
 550 36 l 1
 550 0 l 1
 509 2 476 3 442 3 c 0
EndSplineSet
EndChar

StartChar: psi
Encoding: 968 968 145
Width: 618
Flags: W
LayerCount: 2
Fore
SplineSet
577 300 m 0
 557 288 532 279 520 258 c 0
 513 246 509 233 503 221 c 0
 475 158 424 120 349 108 c 1
 349 81 l 2
 349 50 352 43 426 43 c 2
 450 43 l 1
 450 0 l 1
 371 3 332 3 315 3 c 2
 311 3 l 2
 263 3 215 2 160 0 c 1
 160 43 l 1
 183 43 l 2
 260 43 262 52 262 81 c 2
 262 108 l 1
 187 120 136 158 107 221 c 0
 92 255 91 268 52 289 c 0
 44 294 22 304 22 315 c 0
 22 328 38 332 57 332 c 2
 71 332 l 2
 111 332 151 297 170 260 c 0
 175 251 179 241 183 230 c 0
 199 191 219 164 262 148 c 1
 262 348 l 2
 262 382 255 387 178 387 c 2
 160 387 l 1
 160 430 l 1
 215 428 263 427 311 427 c 0
 337 427 376 427 450 430 c 1
 450 387 l 1
 432 387 l 2
 354 387 349 381 349 348 c 2
 349 148 l 1
 391 164 411 191 427 230 c 0
 432 241 436 251 440 260 c 0
 459 297 500 332 540 332 c 2
 553 332 l 2
 572 332 588 328 588 315 c 0
 588 310 584 305 577 300 c 0
EndSplineSet
EndChar

StartChar: omega
Encoding: 969 969 146
Width: 826
Flags: W
LayerCount: 2
Fore
SplineSet
575 -11 m 0
 537 -11 458 0 411 74 c 1
 366 0 287 -11 249 -11 c 0
 129 -11 32 82 32 210 c 0
 32 348 147 432 261 432 c 0
 267 432 284 428 284 413 c 0
 284 400 271 396 263 396 c 0
 213 396 135 364 135 211 c 0
 135 94 185 27 255 27 c 0
 313 27 369 63 369 96 c 2
 369 263 l 2
 369 283 366 291 359 295 c 0
 349 300 325 300 315 300 c 1
 315 336 l 1
 341 335 370 333 417 333 c 0
 445 333 472 334 508 336 c 1
 508 300 l 1
 497 300 473 301 464 295 c 0
 458 292 455 285 455 263 c 2
 455 96 l 2
 455 80 455 78 468 66 c 0
 495 40 534 27 568 27 c 0
 615 27 689 60 689 211 c 0
 689 365 611 396 561 396 c 0
 553 396 540 400 540 413 c 0
 540 428 556 432 563 432 c 0
 675 432 792 350 792 210 c 0
 792 92 704 -11 575 -11 c 0
EndSplineSet
EndChar

StartChar: iotadieresis
Encoding: 970 970 147
Width: 303
Flags: W
LayerCount: 2
Fore
SplineSet
243 506 m 0
 211 506 187 532 187 561 c 0
 187 585 208 613 244 613 c 0
 276 613 301 587 301 561 c 0
 301 534 280 506 243 506 c 0
60 506 m 0
 28 506 3 532 3 561 c 0
 3 585 25 613 61 613 c 0
 93 613 118 587 118 561 c 0
 118 534 96 506 60 506 c 0
152 3 m 0
 106 3 72 1 31 0 c 1
 31 37 l 1
 47 37 l 2
 107 37 111 42 111 74 c 2
 111 362 l 2
 111 396 103 401 43 401 c 2
 31 401 l 1
 31 437 l 1
 75 434 112 434 151 434 c 0
 191 434 231 434 279 437 c 1
 279 401 l 1
 264 401 l 2
 199 401 198 394 198 345 c 2
 198 94 l 2
 198 45 199 37 264 37 c 2
 279 37 l 1
 279 0 l 1
 231 2 192 3 152 3 c 0
EndSplineSet
EndChar

StartChar: upsilondieresis
Encoding: 971 971 148
Width: 568
Flags: W
LayerCount: 2
Fore
SplineSet
373 506 m 0
 341 506 315 532 315 559 c 0
 315 585 337 613 374 613 c 0
 406 613 431 587 431 559 c 0
 431 534 410 506 373 506 c 0
187 506 m 0
 155 506 129 532 129 559 c 0
 129 585 151 613 188 613 c 0
 220 613 246 587 246 559 c 0
 246 534 223 506 187 506 c 0
278 277 m 1
 296 345 336 429 430 431 c 0
 518 434 544 349 544 307 c 0
 544 282 533 240 477 240 c 0
 444 240 435 260 435 276 c 0
 435 299 451 312 477 313 c 0
 493 314 500 319 500 328 c 0
 500 352 421 384 371 335 c 0
 348 312 331 274 324 223 c 0
 321 197 321 194 321 70 c 2
 321 -112 l 2
 321 -145 324 -150 388 -150 c 2
 403 -150 l 1
 403 -195 l 1
 356 -193 315 -192 276 -192 c 0
 252 -192 220 -192 156 -195 c 1
 156 -150 l 1
 167 -150 l 2
 236 -150 237 -145 237 -112 c 2
 237 70 l 2
 237 134 237 181 236 188 c 0
 228 300 189 361 122 361 c 0
 107 361 60 353 54 312 c 0
 53 301 48 294 34 293 c 0
 20 293 14 299 14 311 c 0
 14 355 43 423 107 430 c 0
 192 441 247 379 278 277 c 1
EndSplineSet
Substitution2: "'salt' Stylistic Alternatives lookup 0-1" upsilondieresis.alt
EndChar

StartChar: omicrontonos
Encoding: 972 972 149
Width: 530
Flags: W
LayerCount: 2
Fore
SplineSet
264 -11 m 0
 138 -11 26 85 26 214 c 0
 26 339 131 448 265 448 c 0
 395 448 502 342 502 214 c 0
 502 87 394 -11 264 -11 c 0
399 287 m 0
 395 310 389 333 376 354 c 0
 350 393 307 413 264 413 c 0
 225 413 177 394 151 352 c 0
 128 313 127 266 127 222 c 0
 127 177 129 127 152 88 c 0
 178 45 223 27 265 27 c 0
 315 27 357 53 379 95 c 0
 400 136 402 186 402 222 c 0
 402 241 402 263 399 287 c 0
EndSplineSet
EndChar

StartChar: upsilontonos
Encoding: 973 973 150
Width: 568
Flags: W
LayerCount: 2
Fore
SplineSet
278 275 m 1
 296 343 336 425 430 428 c 0
 518 430 544 346 544 305 c 0
 544 279 533 237 477 237 c 0
 444 237 435 259 435 274 c 0
 435 296 451 310 477 311 c 0
 493 312 500 317 500 325 c 0
 500 349 421 381 371 332 c 0
 348 309 331 271 324 221 c 0
 321 195 321 192 321 69 c 2
 321 -112 l 2
 321 -145 324 -150 388 -150 c 2
 403 -150 l 1
 403 -195 l 1
 356 -193 315 -192 276 -192 c 0
 252 -192 220 -192 156 -195 c 1
 156 -150 l 1
 167 -150 l 2
 236 -150 237 -145 237 -112 c 2
 237 69 l 2
 237 133 237 179 236 186 c 0
 228 297 189 359 122 359 c 0
 107 359 60 351 54 310 c 0
 52 298 48 292 34 291 c 0
 20 291 14 297 14 309 c 0
 14 353 43 420 107 427 c 0
 192 437 247 375 278 275 c 1
EndSplineSet
Substitution2: "'salt' Stylistic Alternatives lookup 0-1" upsilontonos.alt
EndChar

StartChar: omegatonos
Encoding: 974 974 151
Width: 826
Flags: W
LayerCount: 2
Fore
SplineSet
575 -11 m 0
 537 -11 458 0 411 74 c 1
 366 0 287 -11 249 -11 c 0
 129 -11 32 82 32 210 c 0
 32 348 147 432 261 432 c 0
 267 432 284 428 284 413 c 0
 284 400 271 396 263 396 c 0
 213 396 135 364 135 211 c 0
 135 94 185 27 255 27 c 0
 313 27 369 63 369 96 c 2
 369 263 l 2
 369 283 366 291 359 295 c 0
 349 300 325 300 315 300 c 1
 315 336 l 1
 341 335 370 333 417 333 c 0
 445 333 472 334 508 336 c 1
 508 300 l 1
 497 300 473 301 464 295 c 0
 458 292 455 285 455 263 c 2
 455 96 l 2
 455 80 455 78 468 66 c 0
 495 40 534 27 568 27 c 0
 615 27 689 60 689 211 c 0
 689 365 611 396 561 396 c 0
 553 396 540 400 540 413 c 0
 540 428 556 432 563 432 c 0
 675 432 792 350 792 210 c 0
 792 92 704 -11 575 -11 c 0
EndSplineSet
EndChar

StartChar: periodcentered
Encoding: 183 183 152
Width: 295
Flags: W
LayerCount: 2
Fore
SplineSet
145 323 m 0
 114 323 87 347 87 375 c 0
 87 406 114 430 147 430 c 0
 180 430 207 406 207 377 c 0
 207 347 180 323 145 323 c 0
EndSplineSet
EndChar

StartChar: uni0375
Encoding: 885 885 153
Width: 206
Flags: W
LayerCount: 2
Fore
SplineSet
170 -41 m 2
 144 -103 l 2
 125 -148 106 -193 106 -195 c 0
 102 -201 93 -209 87 -214 c 0
 80 -216 78 -216 68 -216 c 0
 41 -216 20 -200 20 -174 c 0
 20 -165 23 -157 32 -144 c 0
 42 -132 60 -112 92 -75 c 2
 161 6 l 1
 172 0 174 -1 176 -2 c 0
 179 -4 182 -6 182 -12 c 2
 182 -12 178 -24 170 -41 c 2
EndSplineSet
EndChar

StartChar: upsilontonos.alt
Encoding: 1114112 -1 154
Width: 560
Flags: W
LayerCount: 2
Fore
SplineSet
480 363 m 0
 464 343 453 316 444 293 c 2
 328 16 l 2
 322 1 321 -1 321 -13 c 2
 321 -112 l 2
 321 -145 324 -150 388 -150 c 2
 403 -150 l 1
 403 -195 l 1
 356 -193 315 -192 276 -192 c 0
 252 -192 220 -192 156 -195 c 1
 156 -150 l 1
 167 -150 l 2
 236 -150 237 -145 237 -112 c 2
 237 -13 l 2
 237 -1 236 1 230 16 c 2
 89 354 l 2
 72 394 60 394 5 394 c 1
 5 430 l 1
 47 428 80 428 112 428 c 0
 152 428 189 428 235 430 c 1
 235 394 l 1
 218 394 176 396 176 373 c 0
 176 369 177 365 177 361 c 0
 184 344 277 124 302 61 c 1
 306 70 310 78 313 85 c 2
 408 316 l 2
 413 328 421 342 421 356 c 0
 421 378 405 392 371 396 c 1
 371 430 l 1
 408 428 439 428 469 428 c 0
 495 428 520 428 553 430 c 1
 553 396 l 1
 513 392 494 380 480 363 c 0
EndSplineSet
EndChar

StartChar: uni0394
Encoding: 916 916 155
Width: 795
Flags: W
LayerCount: 2
Fore
SplineSet
16 0 m 1
 16 46 l 1
 43 46 68 48 83 67 c 0
 204 221 261 320 368 478 c 1
 347 522 332 543 330 544 c 0
 289 604 230 635 164 635 c 1
 164 683 l 1
 233 680 303 679 386 683 c 1
 680 67 l 2
 688 50 698 46 754 46 c 2
 778 46 l 1
 778 0 l 1
 16 0 l 1
400 414 m 1
 306 289 193 98 193 70 c 0
 193 53 311 51 389 51 c 0
 455 51 527 62 561 72 c 1
 531 135 438 331 400 414 c 1
EndSplineSet
EndChar

StartChar: Xi.alt
Encoding: 1114113 -1 156
Width: 675
Flags: W
LayerCount: 2
Fore
SplineSet
353 594 m 2
 138 594 108 592 100 588 c 0
 90 585 89 542 89 518 c 0
 89 512 84 509 68 509 c 2
 46 509 l 1
 55 677 l 1
 609 677 l 1
 609 594 l 1
 353 594 l 2
590 -97 m 1
 590 -79 l 2
 590 -36 587 -18 582 -10 c 0
 578 -7 573 -4 557 -3 c 0
 541 -1 517 -2 479 -2 c 2
 353 -2 l 1
 50 -2 l 1
 50 66 l 1
 181 119 430 265 430 365 c 0
 430 404 392 436 330 436 c 0
 273 436 232 407 194 317 c 1
 159 326 l 1
 159 366 l 1
 209 495 288 523 369 523 c 0
 452 523 543 478 543 390 c 0
 543 266 301 136 205 86 c 1
 205 82 l 1
 310 82 624 79 624 74 c 2
 633 -97 l 1
 590 -97 l 1
EndSplineSet
EndChar

StartChar: uni037E
Encoding: 894 894 157
Width: 295
Flags: W
LayerCount: 2
Fore
SplineSet
147 311 m 0
 112 311 88 339 88 371 c 0
 88 406 116 430 147 430 c 0
 180 430 207 404 207 372 c 0
 207 322 160 311 147 311 c 0
173 3 m 1
 164 -2 156 -4 147 -4 c 0
 97 -4 87 42 87 55 c 0
 87 86 110 113 146 113 c 0
 200 113 209 60 209 4 c 0
 209 -73 177 -142 139 -182 c 0
 132 -190 126 -194 121 -194 c 0
 115 -194 111 -192 108 -188 c 0
 96 -176 102 -169 113 -156 c 0
 150 -115 173 -58 173 -3 c 2
 173 3 l 1
EndSplineSet
EndChar

StartChar: upsilondieresistonos.alt
Encoding: 1114114 -1 158
Width: 560
Flags: W
LayerCount: 2
Fore
SplineSet
373 506 m 0
 341 506 315 532 315 559 c 0
 315 585 337 613 374 613 c 0
 406 613 431 587 431 559 c 0
 431 534 410 506 373 506 c 0
187 506 m 0
 154 506 129 532 129 559 c 0
 129 585 151 613 188 613 c 0
 220 613 246 587 246 559 c 0
 246 534 223 506 187 506 c 0
480 366 m 0
 464 346 453 319 444 296 c 2
 328 16 l 2
 324 5 321 0 321 -12 c 2
 321 -112 l 2
 321 -145 324 -150 388 -150 c 2
 403 -150 l 1
 403 -195 l 1
 356 -193 315 -192 276 -192 c 0
 252 -192 220 -192 156 -195 c 1
 156 -150 l 1
 167 -150 l 2
 236 -150 237 -145 237 -112 c 2
 237 -12 l 2
 237 0 235 5 230 16 c 2
 89 357 l 2
 73 397 60 398 5 398 c 1
 5 433 l 1
 47 431 80 431 112 431 c 0
 152 431 189 431 235 433 c 1
 235 398 l 1
 218 398 176 400 176 375 c 0
 176 371 177 367 177 363 c 0
 184 346 277 125 302 63 c 1
 306 71 310 79 313 87 c 2
 408 318 l 2
 414 331 421 345 421 359 c 0
 421 382 405 395 371 398 c 1
 371 434 l 1
 408 431 439 431 469 431 c 0
 495 431 520 431 553 434 c 1
 553 398 l 1
 513 396 494 383 480 366 c 0
EndSplineSet
EndChar

StartChar: upsilondieresis.alt
Encoding: 1114115 -1 159
Width: 560
Flags: W
LayerCount: 2
Fore
SplineSet
373 506 m 0
 341 506 315 532 315 559 c 0
 315 585 337 613 374 613 c 0
 406 613 431 587 431 559 c 0
 431 534 410 506 373 506 c 0
187 506 m 0
 154 506 129 532 129 559 c 0
 129 585 151 613 188 613 c 0
 220 613 246 587 246 559 c 0
 246 534 223 506 187 506 c 0
480 366 m 0
 464 346 453 319 444 296 c 2
 328 16 l 2
 324 5 321 0 321 -12 c 2
 321 -112 l 2
 321 -145 324 -150 388 -150 c 2
 403 -150 l 1
 403 -195 l 1
 356 -193 315 -192 276 -192 c 0
 252 -192 220 -192 156 -195 c 1
 156 -150 l 1
 167 -150 l 2
 236 -150 237 -145 237 -112 c 2
 237 -12 l 2
 237 0 235 5 230 16 c 2
 89 357 l 2
 73 397 60 398 5 398 c 1
 5 433 l 1
 47 431 80 431 112 431 c 0
 152 431 189 431 235 433 c 1
 235 398 l 1
 218 398 176 400 176 375 c 0
 176 371 177 367 177 363 c 0
 184 346 277 125 302 63 c 1
 306 71 310 79 313 87 c 2
 408 318 l 2
 414 331 421 345 421 359 c 0
 421 382 405 395 371 398 c 1
 371 434 l 1
 408 431 439 431 469 431 c 0
 495 431 520 431 553 434 c 1
 553 398 l 1
 513 396 494 383 480 366 c 0
EndSplineSet
EndChar

StartChar: upsilon.alt
Encoding: 1114116 -1 160
Width: 560
Flags: W
LayerCount: 2
Fore
SplineSet
480 363 m 0
 464 343 453 316 444 293 c 2
 328 16 l 2
 322 1 321 -1 321 -13 c 2
 321 -112 l 2
 321 -145 324 -150 388 -150 c 2
 403 -150 l 1
 403 -195 l 1
 356 -193 315 -192 276 -192 c 0
 252 -192 220 -192 156 -195 c 1
 156 -150 l 1
 167 -150 l 2
 236 -150 237 -145 237 -112 c 2
 237 -13 l 2
 237 -1 236 1 230 16 c 2
 89 354 l 2
 72 394 60 394 5 394 c 1
 5 430 l 1
 47 428 80 428 112 428 c 0
 152 428 189 428 235 430 c 1
 235 394 l 1
 218 394 176 396 176 373 c 0
 176 369 177 365 177 361 c 0
 184 344 277 124 302 61 c 1
 306 70 310 78 313 85 c 2
 408 316 l 2
 413 328 421 342 421 356 c 0
 421 378 405 392 371 396 c 1
 371 430 l 1
 408 428 439 428 469 428 c 0
 495 428 520 428 553 430 c 1
 553 396 l 1
 513 392 494 380 480 363 c 0
EndSplineSet
EndChar

StartChar: ampersand.alt
Encoding: 1114117 -1 161
Width: 933
Flags: W
LayerCount: 2
Fore
SplineSet
874 368 m 1
 845 378 839 381 809 381 c 0
 679 381 591 280 591 170 c 0
 591 72 660 30 711 30 c 0
 750 30 784 50 827 125 c 1
 856 107 873 87 879 58 c 1
 803 -5 721 -8 686 -8 c 0
 649 -8 615 -1 586 10 c 1
 545 -10 494 -22 428 -22 c 0
 229 -22 56 135 56 342 c 0
 56 546 228 704 428 705 c 0
 528 705 713 681 713 535 c 0
 713 499 698 469 670 449 c 1
 670 438 l 1
 803 438 l 2
 812 438 848 440 858 476 c 1
 900 471 l 1
 874 368 l 1
440 660 m 0
 386 660 227 636 188 438 c 1
 498 438 l 2
 573 438 637 461 637 510 c 0
 637 573 582 661 440 660 c 0
646 381 m 1
 181 381 l 1
 180 368 179 354 179 341 c 0
 179 54 380 23 441 23 c 0
 481 23 513 28 541 38 c 1
 508 67 490 106 490 154 c 0
 490 239 520 295 590 345 c 0
 608 358 627 369 647 382 c 1
 646 380 l 1
 646 381 l 1
EndSplineSet
EndChar

StartChar: uni0374
Encoding: 884 884 162
Width: 206
Flags: W
LayerCount: 2
Fore
SplineSet
197 640 m 0
 174 610 63 480 56 480 c 0
 49 481 37 489 37 495 c 0
 38 500 89 623 109 667 c 0
 111 671 113 677 116 681 c 1
 116 681 l 1
 121 677 l 1
 109 667 l 1
 103 661 l 1
 107 668 111 675 116 681 c 0
 126 694 135 700 149 700 c 0
 176 700 199 683 199 657 c 0
 199 649 199 647 197 640 c 0
EndSplineSet
EndChar

StartChar: xi.alt
Encoding: 1114118 -1 163
Width: 426
Flags: W
LayerCount: 2
Fore
SplineSet
225 368 m 2
 88 368 71 368 66 365 c 0
 60 363 57 320 57 304 c 1
 57 304 l 1
 57 297 48 297 42 297 c 2
 26 297 l 1
 34 431 l 1
 389 431 l 1
 389 368 l 1
 225 368 l 2
138 61 m 1
 398 61 l 1
 405 -74 l 1
 373 -74 l 1
 373 -60 l 2
 373 -32 369 -10 366 -7 c 0
 365 -5 363 -4 353 -3 c 0
 343 -2 327 -2 304 -2 c 2
 225 -2 l 1
 31 -2 l 1
 31 49 l 1
 114 93 255 179 255 231 c 0
 255 254 234 267 213 267 c 0
 174 267 143 234 122 203 c 1
 91 213 l 1
 98 248 l 1
 114 295 168 335 238 335 c 0
 292 335 351 307 351 252 c 0
 351 176 196 88 138 61 c 1
EndSplineSet
EndChar

StartChar: uni03BC
Encoding: 956 956 164
Width: 794
Flags: W
LayerCount: 2
Fore
SplineSet
529 112 m 1
 503 44 468 -8 384 -8 c 0
 305 -8 256 52 229 107 c 1
 225 107 l 1
 202 53 160 -6 83 -6 c 0
 63 -6 44 -2 24 8 c 1
 24 42 l 1
 36 42 40 41 45 41 c 0
 178 39 195 164 195 267 c 0
 195 332 190 361 179 376 c 0
 170 388 156 390 142 392 c 0
 134 393 128 394 113 395 c 1
 113 430 l 1
 170 428 253 427 280 428 c 1
 276 396 275 378 275 346 c 0
 275 196 276 58 400 58 c 0
 479 58 517 185 517 296 c 0
 517 344 510 407 506 428 c 1
 550 428 621 428 677 429 c 1
 678 393 l 1
 659 392 647 391 636 390 c 0
 627 388 621 386 616 381 c 0
 605 371 598 347 598 294 c 0
 598 184 622 51 694 51 c 0
 712 51 722 55 749 74 c 1
 764 39 l 1
 738 15 717 -4 676 -4 c 0
 601 -4 551 55 529 112 c 1
EndSplineSet
EndChar

StartChar: uni03A9
Encoding: 937 937 165
Width: 1060
Flags: W
LayerCount: 2
Fore
SplineSet
734 -22 m 0
 617 -22 559 35 529 77 c 1
 471 -13 366 -22 325 -22 c 0
 168 -22 55 144 55 341 c 0
 55 545 181 705 336 705 c 0
 343 705 359 701 359 686 c 0
 359 675 351 666 339 666 c 0
 279 666 178 602 178 345 c 0
 178 138 244 19 334 19 c 0
 357 19 473 36 477 83 c 0
 478 86 477 90 477 93 c 2
 477 486 l 2
 477 507 473 512 454 514 c 0
 448 514 440 515 424 515 c 1
 424 558 l 1
 462 556 491 556 522 556 c 0
 547 556 592 555 635 558 c 1
 635 515 l 1
 623 515 600 515 590 510 c 0
 585 508 581 502 581 486 c 2
 581 93 l 2
 581 74 581 72 598 59 c 0
 635 28 686 19 725 19 c 2
 726 19 l 2
 815 19 880 140 880 345 c 0
 880 604 780 666 720 666 c 0
 708 666 700 675 700 686 c 0
 700 701 716 705 723 705 c 0
 807 705 881 658 932 585 c 0
 983 512 1004 426 1004 341 c 0
 1004 145 890 -22 734 -22 c 0
EndSplineSet
EndChar

